<svg xmlns="http://www.w3.org/2000/svg" version="1.1" xmlns:xlink="http://www.w3.org/1999/xlink" width="681.48" height="727.98"><svg id="SvgjsSvg1007" xmlns="http://www.w3.org/2000/svg" viewBox="0 0 681.48 727.98"><defs><style>.cls-1{fill:#0dcbb8;}</style></defs><path class="cls-1" d="M362.43,546.43c-5.33,4.85-13.47,4.85-18.8,0l-15.17-13.81c-87.26-79.13-144.87-131.48-144.87-195.36,0-52.36,41-93.19,93.19-93.19,29.48,0,57.78,13.72,76.25,35.24,18.47-21.52,46.77-35.24,76.25-35.24,52.19,0,93.19,40.83,93.19,93.19,0,63.88-57.61,116.23-144.87,195.36l-15.17,13.81Z"></path><path class="cls-1" d="M679.54,317.66c-.22-1.81-1.64-3.32-3.53-3.55-2.23-.28-4.26,1.3-4.54,3.53-6.21,49.8-18.93,95.45-41.46,140.52-22.86,45.72-57.13,88.03-97.4,119.53-38.38,30.02-83.63,53.94-131.6,62.47-67.3,11.97-139,0-197-39-107.93-72.57-154-225-81-350,64.94-111.2,193.8-156.55,315.4-114.91l-18.64,45.06c-3.74,9.05,4.55,18.46,14,15.88l152.7-41.67c7.57-2.07,11.05-10.81,6.96-17.52L512.7,5.65c-5.02-8.24-17.28-7.28-20.96,1.63l-18.79,45.43c-100.38-37.31-223.34-30.24-329.94,44.45C7.31,192.23-33.66,376.69,28.01,522.16c39,92,124.53,167.24,225,193,78,20,159.72,18.54,236.69-18.26,156.31-74.74,202.31-233.74,189.85-379.24Z"></path><circle class="cls-1" cx="608.51" cy="246.66" r="40.5"></circle></svg><style>@media (prefers-color-scheme: light) { :root { filter: none; } }
@media (prefers-color-scheme: dark) { :root { filter: none; } }
</style></svg>