<svg width="16" height="16" viewBox="0 0 16 16" fill="none" xmlns="http://www.w3.org/2000/svg">
<path d="M13 5H10V2C10 1.73478 9.89464 1.48043 9.70711 1.29289C9.51957 1.10536 9.26522 1 9 1H6C5.73478 1 5.48043 1.10536 5.29289 1.29289C5.10536 1.48043 5 1.73478 5 2V5H2C1.73478 5 1.48043 5.10536 1.29289 5.29289C1.10536 5.48043 1 5.73478 1 6V9C1 9.26522 1.10536 9.51957 1.29289 9.70711C1.48043 9.89464 1.73478 10 2 10H5V13C5 13.2652 5.10536 13.5196 5.29289 13.7071C5.48043 13.8946 5.73478 14 6 14H9C9.26522 14 9.51957 13.8946 9.70711 13.7071C9.89464 13.5196 10 13.2652 10 13V10H13C13.2652 10 13.5196 9.89464 13.7071 9.70711C13.8946 9.51957 14 9.26522 14 9V6C14 5.73478 13.8946 5.48043 13.7071 5.29289C13.5196 5.10536 13.2652 5 13 5ZM13 9H9.5C9.36739 9 9.24021 9.05268 9.14645 9.14645C9.05268 9.24021 9 9.36739 9 9.5V13H6V9.5C6 9.36739 5.94732 9.24021 5.85355 9.14645C5.75979 9.05268 5.63261 9 5.5 9H2V6H5.5C5.63261 6 5.75979 5.94732 5.85355 5.85355C5.94732 5.75979 6 5.63261 6 5.5V2H9V5.5C9 5.63261 9.05268 5.75979 9.14645 5.85355C9.24021 5.94732 9.36739 6 9.5 6H13V9Z" fill="#00C1AC"/>
</svg>
