<svg width="27" height="25" viewBox="0 0 27 25" fill="none" xmlns="http://www.w3.org/2000/svg">
<path d="M13.9799 10L21.9375 12.7865V24.1667C21.9375 24.6302 21.5631 25 21.0938 25H17.7188C17.2507 25 16.875 24.6289 16.875 24.2135V18.4271H8.4375V24.2135C8.4375 24.6302 8.06309 25 7.59375 25H4.21875C3.74941 25 3.375 24.6302 3.375 24.1667V13.0261C1.4175 12.3386 0 10.5 0 8.33337C0 7.41567 0.75832 6.71358 1.6875 6.71358C2.61668 6.71358 3.375 7.46202 3.375 8.33337C3.375 9.20473 4.13332 9.95316 5.0625 9.95316H13.9799V10ZM27 4.16672V5.7865C27 7.62869 25.4907 9.07295 23.625 9.07295L21.9375 9.07298V10.9282L15.1875 8.54538V0.833391C15.1875 0.0912055 16.0972 -0.279627 16.6245 0.247455L18.0684 1.66672L20.8965 1.66668C21.4703 1.66668 22.149 2.07684 22.4058 2.59116L22.7812 3.33339L26.1562 3.33342C26.6256 3.33339 27 3.70318 27 4.16672ZM21.0938 4.16672C21.0938 3.70448 20.718 3.38026 20.25 3.38026C19.782 3.38026 19.4062 3.7513 19.4062 4.16672C19.4062 4.58213 19.782 4.95317 20.25 4.95317C20.718 4.95317 21.0938 4.63026 21.0938 4.16672Z" fill="white"/>
</svg>
