<svg width="100" height="100" viewBox="0 0 100 100" fill="none" xmlns="http://www.w3.org/2000/svg">
<path d="M50.5624 24.3757C57.3541 24.3757 64.5728 22.5319 64.5728 19.1048C64.5728 15.6777 57.3541 13.834 50.5624 13.834C43.7708 13.834 36.552 15.6777 36.552 19.1048C36.552 22.5319 43.7708 24.3757 50.5624 24.3757ZM50.5624 15.4069C58.2708 15.4069 63.0103 17.5632 63.0103 19.1152C63.0103 20.6673 58.2708 22.8236 50.5624 22.8236C42.8541 22.8236 38.1145 20.6673 38.1145 19.1152C38.1145 17.5632 42.8541 15.4069 50.5624 15.4069Z" fill="white"/>
<path d="M69.0834 20.8434C68.6771 20.6975 68.2292 20.9059 68.0834 21.3121C67.9375 21.7184 68.1459 22.1663 68.5521 22.3121L72.5938 23.7705C72.6771 23.8017 72.7709 23.8121 72.8542 23.8121C73.1771 23.8121 73.4792 23.6142 73.5938 23.2913C73.7396 22.885 73.5313 22.4371 73.125 22.2913L69.0834 20.833V20.8434Z" fill="white"/>
<path d="M67.427 16.3127C67.552 16.3127 67.6874 16.2814 67.8124 16.2085L71.6353 14.0522C72.0103 13.8439 72.1458 13.3647 71.9374 12.9897C71.7291 12.6147 71.2499 12.4793 70.8749 12.6877L67.052 14.8439C66.677 15.0522 66.5416 15.5314 66.7499 15.9064C66.8957 16.1668 67.1562 16.3022 67.427 16.3022V16.3127Z" fill="white"/>
<path d="M68.5624 18.4474C68.6145 18.8433 68.9478 19.1245 69.3332 19.1245C69.3645 19.1245 69.4061 19.1245 69.4374 19.1245L73.6978 18.562C74.1249 18.5099 74.427 18.1141 74.3645 17.687C74.302 17.2599 73.9061 16.9474 73.4895 17.0204L69.2291 17.5829C68.802 17.6349 68.4999 18.0308 68.5624 18.4579V18.4474Z" fill="white"/>
<path d="M32.3543 20.8447L28.3126 22.303C27.9064 22.4488 27.698 22.8968 27.8439 23.303C27.9584 23.6259 28.2605 23.8238 28.5835 23.8238C28.6668 23.8238 28.7605 23.8134 28.8439 23.7822L32.8855 22.3238C33.2918 22.178 33.5001 21.7301 33.3543 21.3238C33.2085 20.9176 32.7605 20.7093 32.3543 20.8551V20.8447Z" fill="white"/>
<path d="M29.802 14.0518L33.6249 16.2081C33.7499 16.281 33.8749 16.3122 34.0103 16.3122C34.2812 16.3122 34.552 16.1664 34.6874 15.9164C34.8957 15.5414 34.7707 15.0622 34.3853 14.8539L30.5624 12.6977C30.1874 12.4893 29.7082 12.6143 29.4999 12.9997C29.2916 13.3747 29.4166 13.8539 29.802 14.0622V14.0518Z" fill="white"/>
<path d="M27.7396 18.5525L32 19.115C32 19.115 32.0729 19.115 32.1042 19.115C32.4896 19.115 32.8229 18.8337 32.875 18.4379C32.9271 18.0108 32.6354 17.615 32.2083 17.5629L27.9479 17.0004C27.5312 16.9379 27.125 17.24 27.0729 17.667C27.0208 18.0941 27.3125 18.49 27.7396 18.542V18.5525Z" fill="white"/>
<path d="M85.3958 68.8965C85.3958 64.1986 81.7083 59.9694 74.7395 56.6361V50.7194C74.7395 49.4069 73.677 48.3444 72.3645 48.3444H68.802C68.9687 47.3236 69.0833 46.2923 69.0833 45.2507C69.0833 34.8861 60.6562 26.459 50.2916 26.459C39.927 26.459 31.4999 34.8861 31.4999 45.2507C31.4999 46.2923 31.6145 47.3236 31.7812 48.3444H27.6458C26.3333 48.3444 25.2708 49.4069 25.2708 50.7194V56.709L25.2395 56.6361C18.2916 60.0319 14.6145 64.2715 14.6145 68.8861C14.6145 73.7715 18.3958 77.2298 25.2708 78.6569V85.0215C25.2708 86.334 26.3333 87.3965 27.6458 87.3965H72.3749C73.6874 87.3965 74.7499 86.334 74.7499 85.0215V78.6465C81.6249 77.2194 85.4062 73.7819 85.4062 68.8757L85.3958 68.8965ZM16.1666 68.8965C16.1666 64.1048 20.9687 60.5736 25.2603 58.3757V77.0736C20.9687 76.1361 16.1666 73.9486 16.1666 68.8965ZM33.052 45.2611C33.052 35.7611 40.7812 28.0319 50.2812 28.0319C59.7812 28.0319 67.5103 35.7611 67.5103 45.2611C67.5103 46.3027 67.4062 47.334 67.2187 48.3548H33.3541C33.1666 47.334 33.052 46.3027 33.052 45.2611ZM73.177 85.0319C73.177 85.4798 72.8124 85.8444 72.3645 85.8444H27.6353C27.1874 85.8444 26.8228 85.4798 26.8228 85.0319V50.7194C26.8228 50.2715 27.1874 49.9069 27.6353 49.9069H72.3645C72.8124 49.9069 73.177 50.2715 73.177 50.7194V85.0319ZM74.7395 77.0736V58.3757C79.1666 60.6048 83.8333 64.0944 83.8333 68.9069C83.8333 74.1361 78.5208 76.2402 74.7395 77.084V77.0736Z" fill="white"/>
<path d="M56.2501 46C57.4007 46 58.3334 44.6009 58.3334 42.875C58.3334 41.1491 57.4007 39.75 56.2501 39.75C55.0995 39.75 54.1667 41.1491 54.1667 42.875C54.1667 44.6009 55.0995 46 56.2501 46Z" fill="white"/>
<path d="M44.7916 46C45.9422 46 46.8749 44.6009 46.8749 42.875C46.8749 41.1491 45.9422 39.75 44.7916 39.75C43.641 39.75 42.7083 41.1491 42.7083 42.875C42.7083 44.6009 43.641 46 44.7916 46Z" fill="white"/>
<path d="M51.3124 68.5928C51.5207 68.1866 51.6353 67.7178 51.5936 67.2282C51.5416 66.5303 51.2186 65.9053 50.6978 65.447C50.177 64.9887 49.4895 64.7699 48.802 64.822C48.1041 64.8741 47.4791 65.197 47.0207 65.7178C46.5624 66.2491 46.3436 66.9157 46.3957 67.6137C46.4999 68.9782 47.6457 70.0199 48.9895 70.0199C49.052 70.0199 49.1249 70.0199 49.1874 70.0199C49.7499 69.9782 50.2603 69.7491 50.6561 69.4157L52.7395 71.072C52.8332 71.1449 52.9478 71.1866 53.0624 71.1866C53.2186 71.1866 53.3645 71.1241 53.4686 70.9887C53.6457 70.7595 53.6145 70.4366 53.3853 70.2595L51.2916 68.6032L51.3124 68.5928ZM49.1145 68.9887C48.2707 69.0616 47.4999 68.4053 47.4374 67.5512C47.4061 67.1345 47.5416 66.7282 47.8124 66.4157C48.0832 66.1032 48.4582 65.9053 48.8749 65.8741C48.9166 65.8741 48.9582 65.8741 48.9999 65.8741C49.3749 65.8741 49.7291 66.0095 50.0103 66.2491C50.3228 66.5199 50.5207 66.8949 50.552 67.3116C50.6145 68.1762 49.9686 68.9262 49.1145 68.9887Z" fill="white"/>
</svg>
