<svg width="25" height="24" viewBox="0 0 25 24" fill="none" xmlns="http://www.w3.org/2000/svg">
<g clip-path="url(#clip0_4631_11059)">
<path d="M12.5 6.75V8.25" stroke="#F1F1F1" stroke-linecap="round" stroke-linejoin="round"/>
<path d="M12.5 15.75V17.25" stroke="#F1F1F1" stroke-linecap="round" stroke-linejoin="round"/>
<path d="M12.5 21C17.4706 21 21.5 16.9706 21.5 12C21.5 7.02944 17.4706 3 12.5 3C7.52944 3 3.5 7.02944 3.5 12C3.5 16.9706 7.52944 21 12.5 21Z" stroke="#F1F1F1" stroke-linecap="round" stroke-linejoin="round"/>
<path d="M10.25 15.75H13.625C14.1223 15.75 14.5992 15.5525 14.9508 15.2008C15.3025 14.8492 15.5 14.3723 15.5 13.875C15.5 13.3777 15.3025 12.9008 14.9508 12.5492C14.5992 12.1975 14.1223 12 13.625 12H11.375C10.8777 12 10.4008 11.8025 10.0492 11.4508C9.69754 11.0992 9.5 10.6223 9.5 10.125C9.5 9.62772 9.69754 9.15081 10.0492 8.79917C10.4008 8.44754 10.8777 8.25 11.375 8.25H14.75" stroke="#F1F1F1" stroke-linecap="round" stroke-linejoin="round"/>
</g>
<defs>
<clipPath id="clip0_4631_11059">
<rect width="24" height="24" fill="white" transform="translate(0.5)"/>
</clipPath>
</defs>
</svg>
