<svg width="27" height="25" viewBox="0 0 27 25" fill="none" xmlns="http://www.w3.org/2000/svg">
<path d="M26.2069 13.2868C26.7131 13.7891 27 14.4699 27 15.1786C27 15.8873 26.7131 16.5681 26.2069 17.0703C25.7006 17.5725 25.0144 17.8571 24.3 17.8571H2.7C1.98394 17.8571 1.29712 17.5725 0.790875 17.0703C0.284625 16.5681 0 15.8873 0 15.1786C0 14.4699 0.284625 13.7891 0.790875 13.2868C1.29712 12.7846 1.98394 12.5 2.7 12.5H24.3C25.0144 12.5 25.7006 12.7846 26.2069 13.2868ZM25.8356 19.9051C26.0044 20.0725 26.1 20.3013 26.1 20.5357V21.4286C26.1 22.327 25.7231 23.2868 25.0481 23.9565C24.3731 24.6261 23.4056 25 22.5 25H4.5C3.54544 25 2.62969 24.6261 1.95469 23.9565C1.27912 23.2868 0.9 22.327 0.9 21.4286V20.5357C0.9 20.3013 0.995062 20.0725 1.16381 19.9051C1.33256 19.7377 1.5615 19.6429 1.8 19.6429H25.2C25.4362 19.6429 25.6669 19.7377 25.8356 19.9051ZM1.93444 10.5357C1.68356 10.4129 1.46419 10.24 1.29206 10.0223C1.11994 9.80469 1.00069 9.55357 0.942187 9.28571C0.883687 9.01228 0.88875 8.73326 0.955688 8.4654C2.19263 3.62835 7.34062 0 13.5 0C19.6594 0 24.8062 3.62835 26.0437 8.4654C26.1112 8.73326 26.1169 9.01228 26.055 9.28571C25.9988 9.55357 25.8806 9.80469 25.7062 10.0223C25.4869 10.24 25.3181 10.4129 25.065 10.5357C24.8175 10.6529 24.5419 10.7143 24.2606 10.7143H2.73769C2.45981 10.7143 2.18475 10.6529 1.93444 10.5357ZM20.0644 4.72656C19.8956 4.89397 19.8 5.12277 19.8 5.35714C19.8 5.53571 19.8506 5.7087 19.9519 5.85379C20.0531 5.99888 20.1431 6.11607 20.3569 6.18304C20.52 6.19978 20.7 6.26674 20.8744 6.23326C21.0487 6.19978 21.2119 6.11607 21.3356 5.98772C21.465 5.86496 21.5494 5.70313 21.5831 5.53013C21.6169 5.35714 21.5494 5.17857 21.5325 5.01674C21.465 4.80469 21.3469 4.7154 21.2006 4.61495C21.0544 4.51451 20.88 4.41406 20.7 4.41406C20.4637 4.41406 20.2331 4.55915 20.0644 4.72656ZM12.8644 2.94029C12.6956 3.1077 12.6 3.33482 12.6 3.57143C12.6 3.74777 12.6506 3.92299 12.7519 4.06808C12.8531 4.21317 12.9431 4.33036 13.1569 4.39732C13.32 4.41406 13.5 4.48103 13.6744 4.44754C13.8488 4.41406 14.0119 4.33036 14.1356 4.20201C14.265 4.07924 14.3494 3.91741 14.3831 3.74554C14.4169 3.57254 14.3494 3.39286 14.3325 3.22991C14.265 3.06641 14.1469 2.9269 14.0006 2.82924C13.8544 2.73103 13.68 2.62835 13.5 2.62835C13.2638 2.62835 13.0331 2.77288 12.8644 2.94029ZM5.66437 4.72656C5.49562 4.89397 5.4 5.12277 5.4 5.35714C5.4 5.53571 5.45062 5.7087 5.55187 5.85379C5.65312 5.99888 5.74312 6.11607 5.95687 6.18304C6.12 6.19978 6.3 6.26674 6.47438 6.23326C6.64875 6.19978 6.81187 6.11607 6.93563 5.98772C7.065 5.86496 7.14937 5.70313 7.18312 5.53013C7.21687 5.35714 7.14937 5.17857 7.1325 5.01674C7.065 4.80469 6.94687 4.7154 6.80062 4.61495C6.65437 4.51451 6.48 4.41406 6.3 4.41406C6.06375 4.41406 5.83312 4.55915 5.66437 4.72656Z" fill="white"/>
</svg>
