<svg width="25" height="24" viewBox="0 0 25 24" fill="none" xmlns="http://www.w3.org/2000/svg">
<g clip-path="url(#clip0_4631_11085)">
<path d="M12.5 15.75C14.5711 15.75 16.25 14.0711 16.25 12C16.25 9.92893 14.5711 8.25 12.5 8.25C10.4289 8.25 8.75 9.92893 8.75 12C8.75 14.0711 10.4289 15.75 12.5 15.75Z" stroke="#F1F1F1" stroke-linecap="round" stroke-linejoin="round"/>
<path d="M4.384 16.6973C3.9696 15.9836 3.65212 15.2178 3.43994 14.4202L5.01307 12.4514C4.99525 12.1504 4.99525 11.8486 5.01307 11.5477L3.44088 9.57891C3.6527 8.78117 3.96953 8.01509 4.38307 7.30078L6.88713 7.01953C7.08709 6.79424 7.30028 6.58106 7.52557 6.38109L7.80682 3.87797C8.5201 3.4664 9.28492 3.15146 10.0812 2.94141L12.0499 4.51453C12.3509 4.49672 12.6527 4.49672 12.9537 4.51453L14.9224 2.94234C15.7202 3.15416 16.4863 3.47099 17.2006 3.88453L17.4818 6.38859C17.7071 6.58855 17.9203 6.80174 18.1203 7.02703L20.6234 7.30828C21.0378 8.02206 21.3553 8.78786 21.5674 9.58547L19.9943 11.5542C20.0121 11.8552 20.0121 12.157 19.9943 12.458L21.5665 14.4267C21.3562 15.2242 21.0409 15.9903 20.629 16.7048L18.1249 16.9861C17.925 17.2114 17.7118 17.4246 17.4865 17.6245L17.2053 20.1277C16.4915 20.5421 15.7257 20.8595 14.9281 21.0717L12.9593 19.4986C12.6583 19.5164 12.3566 19.5164 12.0556 19.4986L10.0868 21.0708C9.28931 20.8604 8.52325 20.5452 7.80869 20.1333L7.52744 17.6292C7.30215 17.4293 7.08897 17.2161 6.889 16.9908L4.384 16.6973Z" stroke="#F1F1F1" stroke-linecap="round" stroke-linejoin="round"/>
</g>
<defs>
<clipPath id="clip0_4631_11085">
<rect width="24" height="24" fill="white" transform="translate(0.5)"/>
</clipPath>
</defs>
</svg>
