<svg width="101" height="101" viewBox="0 0 101 101" fill="none" xmlns="http://www.w3.org/2000/svg">
<g clip-path="url(#clip0_3514_1985)">
<path d="M19.6025 82.0938H7.10254C6.27374 82.0938 5.47888 81.7645 4.89283 81.1785C4.30678 80.5924 3.97754 79.7976 3.97754 78.9688V63.3438C3.97754 62.5149 4.30678 61.7201 4.89283 61.134C5.47888 60.548 6.27374 60.2188 7.10254 60.2188H19.6025" stroke="#F1F1F1" stroke-width="3" stroke-linecap="round" stroke-linejoin="round"/>
<path d="M44.6025 63.3438H57.1025L83.2744 57.3242C84.2366 57.0606 85.2467 57.0223 86.2261 57.2125C87.2055 57.4027 88.1278 57.8162 88.9214 58.4208C89.715 59.0255 90.3585 59.805 90.8018 60.6988C91.2451 61.5926 91.4764 62.5766 91.4775 63.5742C91.478 64.7789 91.1427 65.9598 90.5093 66.9845C89.8759 68.0091 88.9694 68.837 87.8916 69.375L72.7275 75.8438L47.7275 82.0938H19.6025V60.2188L29.3682 50.4532C30.241 49.5833 31.2768 48.8941 32.4163 48.4249C33.5557 47.9557 34.7765 47.7158 36.0088 47.7188H55.54C57.612 47.7188 59.5992 48.5419 61.0643 50.007C62.5294 51.4721 63.3525 53.4593 63.3525 55.5313C63.3525 57.6033 62.5294 59.5904 61.0643 61.0556C59.5992 62.5207 57.612 63.3438 55.54 63.3438H44.6025Z" stroke="#F1F1F1" stroke-width="3" stroke-linecap="round" stroke-linejoin="round"/>
<path d="M38.6377 47.7198C34.8369 42.9229 32.1025 37.7823 32.1025 32.0948C32.1025 23.6221 39.0049 16.4698 47.5166 16.4698C50.5587 16.4341 53.5422 17.3073 56.0851 18.9775C58.6279 20.6476 60.6144 23.0388 61.79 25.8448C62.9657 23.0388 64.9521 20.6476 67.495 18.9775C70.0379 17.3073 73.0214 16.4341 76.0635 16.4698C84.5752 16.4698 91.4775 23.6221 91.4775 32.0948C91.4775 43.5128 80.4697 53.6065 71.8604 59.9542" stroke="#F1F1F1" stroke-width="3" stroke-linecap="round" stroke-linejoin="round"/>
</g>
<defs>
<clipPath id="clip0_3514_1985">
<rect width="100" height="100" fill="white" transform="translate(0.852539 0.84375)"/>
</clipPath>
</defs>
</svg>
