<svg width="49" height="48" viewBox="0 0 49 48" fill="none" xmlns="http://www.w3.org/2000/svg">
<g clip-path="url(#clip0_3707_6213)">
<path d="M9.5 39H3.5C3.10218 39 2.72064 38.842 2.43934 38.5607C2.15804 38.2794 2 37.8978 2 37.5V30C2 29.6022 2.15804 29.2206 2.43934 28.9393C2.72064 28.658 3.10218 28.5 3.5 28.5H9.5" stroke="#F1F1F1" stroke-width="3" stroke-linecap="round" stroke-linejoin="round"/>
<path d="M21.5 30H27.5L40.0625 27.1106C40.5244 26.9841 41.0092 26.9657 41.4793 27.057C41.9494 27.1483 42.3921 27.3468 42.7731 27.637C43.154 27.9272 43.4629 28.3014 43.6757 28.7304C43.8885 29.1594 43.9994 29.6317 44 30.1106C44.0002 30.6889 43.8393 31.2557 43.5353 31.7476C43.2312 32.2394 42.7961 32.6367 42.2788 32.895L35 36L23 39H9.5V28.5L14.1875 23.8125C14.6065 23.395 15.1036 23.0642 15.6506 22.8389C16.1975 22.6137 16.7835 22.4986 17.375 22.5H26.75C27.7446 22.5 28.6984 22.8951 29.4017 23.5984C30.1049 24.3016 30.5 25.2555 30.5 26.25C30.5 27.2446 30.1049 28.1984 29.4017 28.9017C28.6984 29.6049 27.7446 30 26.75 30H21.5Z" stroke="#F1F1F1" stroke-width="3" stroke-linecap="round" stroke-linejoin="round"/>
<path d="M18.6369 22.5005C16.8125 20.198 15.5 17.7305 15.5 15.0005C15.5 10.9336 18.8131 7.50051 22.8987 7.50051C24.359 7.48337 25.791 7.90249 27.0116 8.70418C28.2322 9.50587 29.1857 10.6536 29.75 12.0005C30.3143 10.6536 31.2678 9.50587 32.4884 8.70418C33.709 7.90249 35.141 7.48337 36.6012 7.50051C40.6869 7.50051 44 10.9336 44 15.0005C44 20.4811 38.7162 25.3261 34.5837 28.373" stroke="#F1F1F1" stroke-width="3" stroke-linecap="round" stroke-linejoin="round"/>
</g>
<defs>
<clipPath id="clip0_3707_6213">
<rect width="48" height="48" fill="white" transform="translate(0.5)"/>
</clipPath>
</defs>
</svg>
