<svg width="25" height="24" viewBox="0 0 25 24" fill="none" xmlns="http://www.w3.org/2000/svg">
<g clip-path="url(#clip0_4631_11048)">
<path d="M10.25 20.2506V14.2506H14.75V20.2506H20.75V11.2506C20.7501 11.1521 20.7307 11.0545 20.6931 10.9635C20.6555 10.8724 20.6003 10.7897 20.5306 10.72L13.0306 3.21996C12.961 3.15023 12.8783 3.09491 12.7872 3.05717C12.6962 3.01943 12.5986 3 12.5 3C12.4014 3 12.3038 3.01943 12.2128 3.05717C12.1217 3.09491 12.039 3.15023 11.9694 3.21996L4.46938 10.72C4.39975 10.7897 4.34454 10.8724 4.3069 10.9635C4.26926 11.0545 4.24992 11.1521 4.25 11.2506V20.2506H10.25Z" stroke="#F1F1F1" stroke-linecap="round" stroke-linejoin="round"/>
</g>
<defs>
<clipPath id="clip0_4631_11048">
<rect width="24" height="24" fill="white" transform="translate(0.5)"/>
</clipPath>
</defs>
</svg>
