<svg width="1920" height="1030" viewBox="0 0 1920 1030" fill="none" xmlns="http://www.w3.org/2000/svg">
<path d="M77.9648 97.0195C183.81 147.55 277.586 218.299 353.445 304.854C465.248 434.007 459.167 513.133 566.552 586.914C670.923 658.567 814.173 678.311 930.394 651.243C1088.98 614.279 1096.15 513.677 1299.43 354.338C1418.98 260.714 1643.16 84.9454 1907.57 101.968C2041.15 110.578 2173.95 167.683 2297.4 220.73C2448.71 285.753 2470.43 319.154 2552.09 334.544C2649.08 352.853 2799.03 339.839 3014.69 176.194" stroke="#696969" stroke-opacity="0.1" stroke-width="5" stroke-miterlimit="10"/>
<path d="M75.0039 115.527C170.38 159.919 256.362 220.641 328.654 294.66C335.567 301.836 342.48 309.209 349.445 316.78C462.392 441.876 457.921 517.439 563.955 589.389C610.175 620.873 662.509 643.295 717.912 655.351C757.597 663.952 798.298 667.546 838.968 666.04C869.381 664.898 899.562 660.499 928.941 652.927C961.678 644.916 992.799 631.807 1021.04 614.131C1073.02 581.471 1109.41 537.381 1165.39 482.057C1207.55 440.421 1253.43 402.341 1302.5 368.244C1328.49 349.934 1358.85 327.864 1393.93 305.25C1487.8 244.582 1607.92 178.669 1752.05 155.907C1800.96 147.962 1850.66 145.306 1900.19 147.989C1907.78 148.385 1915.32 148.979 1922.75 149.671C1996.35 156.451 2066.47 174.414 2138.09 198.265C2191.68 215.881 2242.36 237.852 2292.62 258.487C2313.67 267.296 2332.49 275.312 2349.48 282.834C2452.14 328.409 2478.8 352.854 2548.92 363.543C2602.2 371.658 2671.12 370.223 2758.6 341.324C2830.33 317.671 2915.26 275.065 3014.69 204.599" stroke="#696969" stroke-opacity="0.1" stroke-width="5" stroke-miterlimit="10"/>
<path d="M72.25 134.133C166.639 176.847 252.091 235.532 324.444 307.328C331.375 314.256 338.305 321.348 345.235 328.606C459.586 449.694 456.831 521.595 561.409 591.862C607.739 623.758 660.239 646.613 715.886 659.112C755.805 667.769 796.773 671.231 837.669 669.404C868.128 667.926 898.286 662.941 927.486 654.559C960.061 645.595 991.013 631.963 1019.28 614.13C1073.33 580.481 1111.69 537.826 1167.05 486.164C1209.42 446.953 1255.82 411.906 1305.57 381.554C1331.56 365.323 1361.24 345.431 1395.96 325.736C1488.48 273.233 1601.27 218.157 1743.95 200.194C1793.24 193.728 1843.06 191.608 1892.76 193.86C1900.45 194.256 1908.04 194.751 1915.52 195.394C1990.37 201.629 2058.72 217.019 2131.8 238.248C2186.85 254.281 2237.06 275.856 2287.73 296.194C2308.79 304.606 2327.81 312.276 2345.22 319.451C2448.19 362.057 2475.79 384.523 2545.65 392.441C2598.87 398.478 2667.27 395.162 2755.22 365.917C2827.05 341.967 2913.07 300.153 3014.69 233.101" stroke="#696969" stroke-opacity="0.1" stroke-width="5" stroke-miterlimit="10"/>
<path d="M68.9727 152.441C162.589 193.538 247.693 250.307 320.231 320.045C327.144 326.775 334.109 333.603 341.022 340.581C456.88 457.611 455.581 525.949 558.756 594.336C607.614 626.699 655.746 650.006 713.7 662.921C753.887 671.649 795.159 674.981 836.315 672.818C866.832 670.992 896.97 665.403 925.976 656.191C958.406 646.283 989.229 632.126 1017.56 614.13C1073.59 579.491 1113.87 538.369 1168.66 490.419C1211.26 453.612 1258.24 421.676 1308.63 395.261C1334.88 381.108 1363.68 363.393 1397.98 346.618C1489.62 301.785 1594.61 257.892 1735.84 244.631C1785.52 239.663 1835.51 238.092 1885.43 239.93C1893.17 240.276 1901.02 240.721 1908.3 241.315C1981.73 247.042 2054.42 259.487 2125.35 278.478C2181.85 292.878 2231.65 314.255 2282.95 334.049C2304 342.164 2323.18 349.438 2341.06 356.267C2444.29 395.855 2472.88 416.242 2542.42 421.537C2595.65 425.595 2663.68 420.25 2751.94 390.659C2823.93 366.708 2910.89 325.191 3014.69 261.307" stroke="#696969" stroke-opacity="0.1" stroke-width="5" stroke-miterlimit="10"/>
<path d="M65.9609 170.898C158.673 210.398 243.328 265.177 316.024 332.712C322.937 339.244 329.954 345.776 336.815 352.506C453.92 465.676 454.44 530.006 556.16 596.859C606.11 629.568 652.63 653.519 711.624 666.731C752.042 675.545 793.589 678.728 834.967 676.182C865.622 674.066 895.818 667.887 924.68 657.824C956.891 647.05 987.555 632.47 1015.95 614.426C1073.96 578.748 1116.42 539.309 1170.43 494.625C1208.53 463.153 1253.59 435.639 1311.86 408.918C1338.32 396.745 1366.49 381.157 1400.22 367.351C1491.49 329.99 1588.17 297.578 1727.68 289.017C1777.68 285.507 1827.83 284.466 1877.95 285.9C1885.79 286.197 1893.54 286.593 1900.97 287.088C1974.54 291.68 2047.57 302.208 2119.28 318.56C2177.33 331.326 2226.4 352.555 2278.22 371.656C2299.01 379.475 2318.71 386.501 2337.01 392.885C2440.44 429.701 2470.02 447.763 2539.36 450.386C2592.58 452.415 2660.15 445.14 2748.77 415.252C2820.76 390.955 2908.76 350.18 3014.69 289.562" stroke="#696969" stroke-opacity="0.1" stroke-width="5" stroke-miterlimit="10"/>
<path d="M62.9961 189.359C154.782 227.288 238.967 280.077 311.812 345.383C318.725 351.668 325.742 357.903 332.603 364.336C451.111 473.201 453.242 534.314 553.455 599.287C604.497 632.392 649.405 656.986 709.387 670.495C750.074 679.385 791.93 682.42 833.561 679.501C864.224 677.078 894.337 670.324 922.91 659.46C954.93 647.776 985.461 632.687 1013.92 614.479C1073.96 577.86 1118.66 540.252 1171.78 498.834C1211.02 468.352 1257.07 444.401 1314.66 422.529C1341.43 412.335 1368.98 398.975 1401.99 387.89C1493.62 357.705 1581.41 337.07 1719.46 333.111C1767.44 331.726 1820.51 329.994 1870.46 331.627C1878.41 331.874 1886.05 332.22 1893.64 332.616C1967.23 336.071 2040.46 344.672 2112.72 358.348C2172.24 369.482 2220.94 390.562 2273.34 409.267C2294.39 416.789 2313.98 423.272 2332.75 429.408C2436.39 463.7 2467.11 480.525 2535.98 479.486C2589.2 478.694 2656.36 470.232 2745.29 439.898C2817.33 415.156 2906.42 375.222 3014.48 317.92" stroke="#696969" stroke-opacity="0.1" stroke-width="5" stroke-miterlimit="10"/>
<path d="M59.9805 207.766C150.858 244.161 234.587 294.977 307.601 358.049C314.514 364.086 321.583 370.074 328.392 376.21C448.356 481.117 452.098 538.469 550.803 601.759C602.78 635.161 646.182 660.448 707.255 674.303C748.132 683.214 790.204 686.101 832.001 682.864C862.764 680.104 892.88 672.757 921.246 661.091C953.004 648.446 983.383 632.867 1011.95 614.576C1073.96 576.918 1121.1 540.943 1173.08 502.989C1213.51 473.298 1260.61 453.208 1317.42 436.136C1344.6 427.921 1374.18 423.171 1403.7 408.87C1499.49 405.059 1574.86 369.282 1710.99 377.695C1759.07 380.713 1812.97 376.507 1862.71 377.695C1870.77 377.942 1878.57 378.189 1886.05 378.536C1966.2 382.148 2027.53 386.354 2106.12 398.33C2167.09 407.781 2215.28 428.762 2268.24 446.874C2289.03 454.098 2309.04 460.234 2328.27 466.024C2431.97 497.298 2463.78 510.56 2532.55 508.086C2585.82 506.057 2652.56 494.873 2741.81 464.292C2813.95 439.55 2903.98 399.963 3014.27 345.975" stroke="#696969" stroke-opacity="0.1" stroke-width="5" stroke-miterlimit="10"/>
<path d="M56.9688 226.223C146.926 261.083 230.196 309.892 303.394 370.667C310.359 376.506 317.428 382.197 324.185 388.036C445.864 488.885 451.165 542.576 548.363 604.233C601.64 637.981 643.222 663.911 705.283 678.113C746.514 687.135 788.99 689.857 831.12 686.179C865.373 683.457 893.493 673.659 920.209 662.674C951.731 649.094 982.002 633.021 1010.7 614.625C1074.69 575.978 1124.48 541.883 1175.26 507.145C1216.84 478.592 1265.18 462.114 1320.8 449.694C1348.56 443.508 1377.45 442.073 1406.09 429.603C1501.89 436.63 1568.42 416.985 1703.2 421.982C1751.54 423.813 1806.06 422.725 1855.65 423.764C1863.76 423.764 1871.66 424.11 1879.09 424.358C1960.59 427.277 2020.16 428.762 2100.15 438.708C2162.52 446.527 2210.24 467.36 2263.77 484.926C2284.56 491.854 2304.73 497.594 2324.43 503.038C2428.39 531.64 2461.18 542.625 2529.69 537.33C2582.97 533.322 2649.24 520.209 2738.85 489.281C2811.04 464.539 2902.11 425.347 3014.59 374.675" stroke="#696969" stroke-opacity="0.1" stroke-width="5" stroke-miterlimit="10"/>
<path d="M54.0039 244.633C143.001 278.012 225.782 324.794 299.181 383.189C306.146 388.83 313.267 394.273 320.284 399.766C443.211 496.557 450.228 546.536 545.762 606.511C600.13 640.606 640.101 667.229 703.202 681.678C744.631 690.8 787.349 693.408 829.663 689.398C864.384 686.379 892.036 675.789 918.596 664.161C951.394 649.81 978.37 632.985 1008.78 614.676C1074.79 575.089 1134.51 551.287 1176.77 511.304C1224.64 491.856 1269.39 454.743 1323.92 463.304C1352.3 467.757 1380.57 460.929 1408.22 450.339C1504.07 468.153 1562.13 456.92 1695.19 466.322C1743.74 469.737 1799.15 468.945 1848.32 469.687C1856.58 469.687 1864.48 469.687 1871.97 470.133C1954.71 472.359 2012.56 470.974 2093.91 478.792C2157.89 484.879 2204.98 505.613 2259.04 522.636C2279.83 529.266 2300.21 534.66 2320.32 539.708C2424.28 565.687 2458.37 574.05 2526.62 566.281C2579.95 560.194 2645.8 545.151 2735.67 513.877C2807.97 488.838 2899.82 450.339 3014.69 402.983" stroke="#696969" stroke-opacity="0.1" stroke-width="5" stroke-miterlimit="10"/>
<path d="M50.9883 263.039C139.076 295.006 221.391 339.849 294.97 395.954C301.935 401.348 309.056 406.296 316.125 411.69C440.871 504.423 449.031 550.691 543.162 609.033C598.674 643.425 636.981 670.74 701.07 685.536C742.76 694.7 785.767 697.158 828.31 692.81C863.499 689.495 890.683 677.965 917.14 665.841C949.314 650.996 975.978 633.379 1007.01 614.724C1075 574.048 1137.84 553.066 1178.53 515.409C1228.07 498.089 1275.63 463.351 1327.14 476.861C1355.31 484.234 1383.74 479.83 1410.3 471.071C1506.2 499.673 1555.84 496.951 1687.13 510.658C1735.89 515.607 1791.71 515.211 1840.99 515.607H1864.74C1948.84 517.091 2005.08 512.984 2087.67 518.576C2153.16 522.98 2199.68 543.664 2254.31 560.093C2275.1 566.427 2295.63 571.425 2316.22 576.077C2420.17 599.532 2455.51 605.322 2523.5 594.98C2576.83 586.815 2642.27 569.842 2732.45 538.271C2804.8 512.984 2897.89 475.129 3014.74 431.038" stroke="#696969" stroke-opacity="0.1" stroke-width="5" stroke-miterlimit="10"/>
<path d="M47.9766 281.398C135.049 312.007 216.815 354.857 290.555 408.524C297.572 413.472 304.693 418.42 311.762 423.369C437.859 511.995 447.787 554.552 540.462 611.409C597.118 646.048 634.022 674.106 698.889 689.198C740.813 698.48 784.104 700.807 826.858 696.077C862.566 692.464 889.231 680.291 915.531 667.376C947.082 651.739 973.486 633.677 1005.14 614.725C1075.15 573.059 1141.06 554.799 1179.89 519.517C1231.14 504.276 1278.65 498.832 1329.95 490.371C1359.37 495.715 1386.5 498.634 1412.18 491.756C1508.07 531.344 1549.19 536.985 1678.82 554.849C1727.78 561.628 1784.33 561.974 1833.4 561.43C1841.82 561.43 1849.88 561.43 1857.31 561.43C1942.76 560.391 1997.13 555.245 2081.18 558.708C2148.23 561.43 2194.12 582.015 2249.38 597.9C2270.17 603.888 2290.96 608.589 2311.75 612.745C2415.7 633.677 2452.09 636.795 2519.97 623.879C2573.35 613.685 2638.32 594.782 2728.92 562.865C2801.32 537.381 2895.25 500.119 3014.43 459.294" stroke="#696969" stroke-opacity="0.1" stroke-width="5" stroke-miterlimit="10"/>
<path d="M45.0117 299.809C131.225 329.041 212.585 369.903 286.603 421.144C293.568 426.092 300.741 430.695 307.809 435.346C435.57 519.816 446.953 558.71 537.965 613.836C595.764 648.871 630.745 677.572 696.86 693.011C739.143 702.402 782.843 704.563 825.92 699.394C862.304 695.485 888.553 682.57 914.282 669.011C945.468 652.731 971.457 634.075 1003.63 614.578C1075.57 571.923 1144.65 556.385 1181.71 523.478C1234.62 510.364 1282.85 508.632 1333.22 503.684C1363 511.601 1389.72 517.243 1414.46 512.195C1510.36 562.422 1543 576.871 1670.92 598.892C1720.09 607.353 1777.31 607.947 1826.23 607.106C1834.75 607.106 1842.81 607.106 1850.29 607.106C1936.99 605.275 1989.69 597.209 2075.09 598.644C2143.6 599.683 2188.98 620.219 2244.8 635.51C2265.59 641.25 2286.38 645.407 2307.95 649.415C2411.91 667.922 2449.75 668.318 2517.16 652.83C2570.54 640.557 2635.1 619.774 2726.01 587.51C2798.46 561.828 2893.63 525.16 3014.79 487.651" stroke="#696969" stroke-opacity="0.1" stroke-width="5" stroke-miterlimit="10"/>
<path d="M42 318.168C127.287 346.097 208.167 384.989 282.395 433.763C289.412 438.712 296.585 442.769 303.654 447.173C433.13 527.437 445.968 562.67 535.369 616.261C594.312 651.544 627.629 680.937 694.784 696.723C737.222 706.173 781.112 708.202 824.312 702.71C860.696 698.455 887.101 684.797 912.673 670.545C943.028 653.622 968.809 634.373 1001.76 614.826C1075.73 571.132 1147.87 558.365 1183.22 527.783C1237.84 516.748 1286.6 518.431 1336.19 517.54C1366.28 527.981 1392.63 536.394 1416.39 533.177C1512.34 594.241 1536.45 617.3 1662.71 643.478C1712.09 653.671 1769.99 653.77 1818.64 653.374C1827.27 653.374 1835.38 653.374 1842.86 653.374C1930.91 650.752 1981.9 642.043 2068.65 639.222C2138.61 636.946 2183.47 659.016 2239.86 673.861C2260.86 679.251 2282.15 683.546 2303.64 686.727C2407.6 702.859 2446.68 700.484 2513.84 682.422C2567.27 668.071 2631.36 645.408 2722.58 612.797C2795.35 586.917 2891.3 550.794 3014.64 516.6" stroke="#696969" stroke-opacity="0.1" stroke-width="5" stroke-miterlimit="10"/>
<path d="M38.9844 325.938C123.357 352.676 203.754 389.666 278.184 435.991C285.201 440.444 292.426 444.502 299.547 448.609C430.686 524.666 445.084 556.237 532.77 608.245C592.856 643.874 624.51 673.96 692.652 690.043C735.347 699.587 779.535 701.483 822.959 695.635C860.071 691.032 885.904 676.682 911.321 661.738C940.896 643.824 966.261 624.031 999.995 604.237C1075.93 559.701 1151.25 549.458 1184.83 521.301C1241.12 512.345 1290.44 517.59 1339.25 520.46C1369.66 533.475 1395.59 544.609 1418.41 543.272C1514.41 615.124 1530.06 647.189 1654.55 676.88C1704.18 688.806 1762.76 689.053 1811.31 688.311L1835.64 687.865C1925.04 686.381 1974.26 671.041 2062.36 668.072C2133.93 665.598 2178.11 686.134 2235.08 700.237C2256.31 705.349 2277.83 709.297 2299.53 712.063C2403.23 725.82 2443.82 720.575 2510.67 699.989C2564.15 683.56 2627.82 659.016 2719.36 626.06C2792.12 599.981 2889.17 564.452 3014.69 533.574" stroke="#696969" stroke-opacity="0.1" stroke-width="5" stroke-miterlimit="10"/>
<path d="M35.8633 329.055C119.291 354.435 199.188 389.327 273.816 432.972C280.885 437.227 288.11 440.988 295.231 444.798C428.293 516.749 443.938 544.856 530.168 595.132C591.45 631.008 621.389 661.836 690.571 678.265C733.54 687.824 778.028 689.504 821.658 683.214C859.185 678.265 884.706 663.42 909.759 647.585C938.815 629.424 964.024 608.938 998.121 588.798C1076.09 543.124 1154.47 535.75 1186.33 509.969C1244.34 503.091 1296.06 504.18 1342.26 518.579C1375.37 528.922 1398.55 548.27 1420.23 548.27C1516.23 630.909 1523.35 671.981 1646.18 705.68C1695.97 719.436 1755.33 719.783 1803.61 718.743C1812.45 718.743 1820.66 718.348 1828.1 718.15C1918.85 715.873 1966.3 697.713 2055.81 692.566C2128.84 688.36 2172.5 708.896 2230.04 722.257C2251.47 727.154 2273.2 730.757 2295.11 733.044C2398.76 744.525 2440.65 736.36 2507.23 713.251C2560.72 694.694 2623.97 668.269 2715.82 635.016C2788.59 608.74 2886.72 573.804 3014.43 545.944" stroke="#696969" stroke-opacity="0.1" stroke-width="5" stroke-miterlimit="10"/>
<path d="M33.0039 332.07C115.521 356.248 194.934 389.145 269.761 430.148C276.882 434.156 284.159 437.62 291.228 441.183C425.953 508.68 443.002 533.026 527.569 582.015C589.942 618.139 618.218 649.71 688.699 666.436C731.892 676.279 776.693 677.96 820.566 671.384C858.613 666.089 883.77 650.353 908.511 634.073C936.995 615.318 961.892 594.139 996.873 573.702C1076.76 527.038 1158.26 522.436 1188.46 498.981C1248.08 494.032 1300.84 499.525 1345.75 517.043C1379.48 530.205 1401.98 551.682 1422.88 554.106C1518.88 647.582 1517.48 697.611 1638.69 735.12C1688.69 750.707 1748.62 751.103 1796.86 749.965L1821.49 749.173C1913.55 746.155 1959.29 725.124 2050.19 717.899C2124.78 711.912 2167.82 732.745 2225.98 745.363C2247.62 750.087 2269.57 753.394 2291.68 755.26C2395.22 764.513 2438.47 753.379 2504.79 727.747C2558.27 707.112 2621.06 678.807 2713.27 645.207C2810.88 608.237 2911.75 579.621 3014.69 559.698" stroke="#696969" stroke-opacity="0.1" stroke-width="5" stroke-miterlimit="10"/>
<path d="M29.9922 333.059C111.615 356.151 190.546 387.124 265.554 425.495C272.727 429.256 280.003 432.473 287.072 435.738C423.617 498.93 442.017 519.862 524.973 567.169C588.593 603.54 615.102 635.853 686.363 652.925C729.829 662.812 774.942 664.259 819.009 657.181C857.472 651.539 882.318 635.111 906.799 618.138C934.659 598.789 959.244 576.967 994.745 556.233C1076.66 508.579 1161.07 506.748 1189.71 485.619C1251.05 482.946 1304.63 492.546 1348.45 513.082C1382.76 529.165 1404.64 553.115 1424.55 557.321C1520.6 661.585 1510.62 720.619 1630.17 761.939C1680.38 779.357 1741.04 779.753 1789.06 778.219C1798.06 777.922 1806.42 777.526 1813.86 777.23C1907.42 773.419 1951.23 749.617 2043.44 740.265C2119.48 732.545 2162 753.18 2220.74 765.403C2242.59 769.847 2264.76 772.757 2287.06 774.112C2390.55 781.188 2435.09 766.986 2501.15 738.879C2554.64 716.116 2617.01 685.98 2709.53 651.985C2808 614.815 2910.27 587.533 3014.69 570.583" stroke="#696969" stroke-opacity="0.1" stroke-width="5" stroke-miterlimit="10"/>
<path d="M26.9766 330.238C107.721 352.226 186.173 381.231 261.343 416.885C268.516 420.399 275.844 423.368 282.913 426.386C421.329 485.124 441.288 502.345 522.373 548.365C587.189 584.983 611.982 618.088 684.283 635.408C727.99 645.409 773.393 646.722 817.657 639.268C856.588 633.231 881.121 616.158 905.291 598.493C932.579 578.699 956.852 556.085 992.977 535.054C1076.87 486.411 1164.5 487.252 1191.32 468.547C1254.32 467.953 1308.64 481.908 1351.52 505.462C1386.24 524.563 1407.65 550.79 1426.62 556.827C1522.68 671.927 1504.07 739.919 1622.06 784.999C1672.37 804.298 1733.81 804.793 1781.68 802.912C1790.73 802.566 1799.15 802.12 1806.58 801.774C1901.33 797.221 1943.44 770.5 2036.99 759.069C2114.54 749.568 2156.54 770.252 2215.74 781.881C2237.84 786.062 2260.24 788.626 2282.74 789.551C2386.18 794.5 2431.97 777.18 2497.77 746.599C2551.26 721.857 2613.27 689.692 2706.1 655.399C2805.28 617.853 2908.83 591.754 3014.53 577.66" stroke="#696969" stroke-opacity="0.1" stroke-width="5" stroke-miterlimit="10"/>
<path d="M24.0117 327.418C103.872 348.39 181.829 375.447 257.13 408.325C264.355 411.591 271.684 414.213 278.753 416.985C419.092 471.417 439.883 485.025 519.772 529.561C585.731 566.378 608.861 600.274 682.15 617.94C726.112 628.086 771.834 629.25 816.303 621.355C855.702 614.872 879.924 597.256 903.833 578.848C930.55 558.312 954.459 535.202 991.207 513.875C1077.13 464.39 1167.93 467.755 1192.93 451.426C1250.31 452.075 1306.33 468.149 1354.53 497.792C1389.61 519.961 1410.66 548.415 1428.65 556.332C1524.76 682.22 1497.47 759.218 1613.95 808.059C1664.37 829.288 1726.58 829.683 1774.25 827.605C1783.45 827.209 1791.87 826.714 1799.35 826.269C1895.35 820.826 1935.9 791.63 2030.81 777.873C2109.76 766.64 2151.34 787.325 2211.12 798.36C2231.91 802.17 2253.84 802.764 2278.69 804.941C2381.71 813.997 2429.16 787.374 2494.71 754.269C2548.19 727.251 2609.78 693.404 2702.93 658.765C2802.92 620.846 2907.82 595.881 3014.79 584.538" stroke="#696969" stroke-opacity="0.1" stroke-width="5" stroke-miterlimit="10"/>
<path d="M21 324.598C100.014 344.581 177.502 369.678 252.923 399.715C260.2 402.684 267.529 405.109 274.65 407.583C416.756 457.067 439.158 467.706 517.176 510.758C584.383 547.821 605.538 582.46 680.074 600.473C724.366 610.751 770.472 611.763 815.215 603.442C855.029 596.514 878.939 578.304 902.589 559.203C928.577 538.073 952.279 514.32 989.651 492.696C1077.6 442.024 1171.57 448.16 1194.75 434.354C1253.67 437.295 1310.34 456.807 1357.6 490.419C1392.89 515.607 1413.68 546.337 1430.68 556.085C1526.84 692.761 1490.82 778.764 1605.79 831.416C1656.37 854.525 1719.31 854.871 1766.92 852.545C1776.17 852.1 1784.7 851.506 1792.13 851.061C1889.48 844.776 1928.26 812.562 2024.57 796.925C2105.09 783.911 2145.89 804.744 2206.49 815.086C2229.12 818.084 2251.9 819.934 2274.74 820.628C2377.92 827.012 2426.41 797.816 2491.75 762.237C2545.18 733.09 2606.41 697.412 2699.66 662.427C2800.4 624.214 2906.56 600.498 3014.64 592.06" stroke="#696969" stroke-opacity="0.1" stroke-width="5" stroke-miterlimit="10"/>
<path d="M17.9844 321.777C96.1878 340.821 173.231 363.949 248.764 391.055C256.041 393.777 263.37 396.004 270.491 398.132C414.468 443.261 438.222 450.288 514.784 492.152C582.979 529.166 602.418 564.646 677.941 582.955C722.419 593.38 768.776 594.259 813.654 585.529C853.937 578.155 877.587 559.351 900.873 539.558C926.445 517.884 949.679 493.438 987.727 471.517C1077.6 419.855 1174.85 428.861 1196.16 417.084C1256.77 422.204 1314.23 445.055 1360.66 482.502C1396.06 510.807 1416.64 543.714 1432.71 555.294C1528.86 702.806 1484.11 798.113 1597.68 854.228C1648.36 879.267 1712.03 879.564 1759.44 876.991C1768.79 876.496 1777.37 875.853 1784.8 875.308C1883.56 868.183 1920.51 833.197 2018.23 815.482C2100.25 800.637 2140.48 821.618 2201.56 831.317C2224.39 834.151 2247.39 835.655 2270.43 835.82C2373.76 839.531 2423.29 807.762 2488.37 769.66C2541.85 738.435 2602.72 700.876 2696.28 665.743C2797.83 627.189 2905.31 604.674 3014.48 599.087" stroke="#696969" stroke-opacity="0.1" stroke-width="5" stroke-miterlimit="10"/>
<path d="M15.0742 318.957C104.112 340.483 184.001 362.404 244.606 382.495C251.987 384.969 259.316 386.849 266.385 388.829C412.286 429.208 437.339 432.969 512.03 472.952C581.628 510.362 599.56 546.634 675.915 565.29C720.637 575.842 767.294 576.569 812.356 567.418C853.106 559.55 876.496 540.251 899.47 519.715C924.419 497.447 947.341 472.358 986.012 450.14C1077.91 397.489 1178.33 409.216 1197.82 400.012C1260.09 407.366 1318.26 433.518 1363.78 474.635C1399.23 506.057 1421.95 539.212 1434.84 554.601C1554.38 697.759 1477.41 817.412 1589.63 877.09C1640.36 904.109 1704.91 904.307 1752.11 901.486C1761.57 900.942 1770.14 900.199 1777.63 899.606C1877.58 891.639 1912.77 853.882 2011.94 834.138C2095.47 817.462 2135.13 838.542 2196.83 847.548C2219.82 850.795 2243.09 851.972 2266.32 851.062C2369.7 847.697 2420.38 817.709 2485.25 777.182C2538.68 743.78 2599.08 704.39 2693.16 668.761C2795.58 629.887 2904.42 608.561 3014.64 605.768" stroke="#696969" stroke-opacity="0.1" stroke-width="5" stroke-miterlimit="10"/>
<path d="M12.0078 316.137C102.033 337.019 181.402 356.813 240.345 373.885C247.777 376.062 255.106 377.695 262.175 379.427C410.103 415.056 436.351 415.6 509.38 454.297C580.225 491.905 596.39 529.068 673.732 548.02C718.733 558.71 765.729 559.286 811.004 549.703C852.171 541.29 875.249 521.497 897.911 500.218C922.34 477.357 944.69 451.625 984.193 429.109C1078.06 375.419 1181.34 389.918 1199.43 383.039C1270.85 392.936 1326.98 428.367 1366.8 467.163C1402.2 501.802 1424.6 537.579 1436.81 554.255C1552.46 711.962 1470.6 837.058 1581.41 900.348C1632.2 929.296 1697.64 929.395 1744.62 926.327C1754.19 925.684 1762.87 924.942 1770.3 924.299C1871.6 915.441 1905.08 874.814 2005.6 853.091C2090.58 834.633 2129.67 855.862 2191.94 864.175C2215.17 867.173 2238.66 867.985 2262.06 866.6C2365.49 861.305 2417.37 828.052 2482.03 785C2535.41 749.471 2595.44 708.25 2689.94 672.275C2763.17 644.415 2869.62 614.181 3014.69 612.894" stroke="#696969" stroke-opacity="0.1" stroke-width="5" stroke-miterlimit="10"/>
<path d="M8.99219 313.316C99.9526 333.704 178.802 351.122 236.133 365.324C243.618 367.155 250.947 368.541 258.016 370.273C407.659 400.805 435.415 398.182 506.78 435.493C578.145 472.804 593.27 511.254 671.652 530.503C716.89 541.375 764.199 541.816 809.652 531.79C851.234 522.783 874.104 502.594 896.454 480.623C920.312 457.217 942.506 430.792 982.425 407.98C1078.32 353.547 1184.72 370.52 1201.04 366.017C1274.17 377.992 1330.36 417.58 1369.86 459.542C1405.16 497.052 1427.04 535.699 1438.84 553.563C1550.02 725.52 1463.74 856.406 1573.3 923.21C1624.09 954.187 1690.36 954.138 1737.24 950.822C1746.86 950.13 1755.59 949.288 1763.23 948.596C1865.83 938.699 1897.59 895.548 1999.47 871.697C2085.96 851.458 2124.52 872.835 2187.37 880.456C2210.83 883.219 2234.54 883.683 2258.11 881.841C2361.59 874.567 2414.56 838.048 2479.06 792.522C2532.39 754.865 2592.06 711.813 2686.97 675.492C2760.31 647.434 2867.75 617.744 3015 619.872" stroke="#696969" stroke-opacity="0.1" stroke-width="5" stroke-miterlimit="10"/>
<path d="M6.03125 310.492C97.8753 330.286 176.205 345.428 231.925 356.809C239.462 358.343 246.791 359.531 253.86 360.719C405.322 386.5 434.481 380.76 504.183 416.735C577.523 454.541 590.101 493.436 669.523 513.031C715.017 524.093 762.664 524.382 808.303 513.873C850.3 504.223 872.962 483.638 895.001 461.023C918.287 436.974 940.117 409.956 980.712 386.797C1078.53 331.127 1188.88 343.845 1202.66 348.941C1273.76 375.119 1333.69 406.69 1372.93 451.918C1408.07 492.446 1429.74 533.765 1440.92 553.312C1547.21 739.125 1456.82 876.246 1565.2 946.563C1615.98 979.52 1683.13 979.272 1729.81 975.759C1739.58 975.017 1748.31 974.126 1755.8 973.384C1859.75 962.794 1889.69 916.675 1992.97 890.745C2080.92 868.675 2118.91 890.25 2182.38 897.178C2206.09 899.699 2230.01 899.816 2253.74 897.524C2357.28 888.32 2411.39 848.485 2475.63 800.486C2528.96 760.898 2588.27 715.768 2683.54 679.101C2756.94 650.845 2865.46 621.798 3014.85 627.192" stroke="#696969" stroke-opacity="0.1" stroke-width="5" stroke-miterlimit="10"/>
<path d="M3.01562 307.672C95.7953 327.119 173.553 339.589 227.714 348.101C235.303 349.288 242.631 350.278 249.752 351.218C402.982 372.1 433.596 363.342 501.583 397.882C576.43 435.985 586.826 475.572 667.443 495.366C713.201 506.57 761.175 506.706 807.002 495.762C849.312 485.419 871.818 464.537 893.492 441.329C916.259 416.587 937.725 389.024 978.943 365.618C1078.79 308.958 1191.48 330.385 1204.27 331.82C1282.23 340.678 1336.96 395.754 1375.79 444.248C1402.05 478.079 1424.49 514.454 1442.74 552.768C1544.09 752.09 1449.7 895.793 1557.09 969.623C1607.82 1004.56 1675.91 1004.26 1722.43 1000.45C1732.25 999.66 1741.09 998.671 1748.42 997.879C1853.62 986.25 1881.84 937.409 1986.58 909.549C2075.93 885.599 2113.45 907.52 2177.49 913.656C2201.44 915.935 2225.58 915.686 2249.48 912.914C2353.12 901.78 2408.22 858.482 2472.36 808.156C2525.58 766.144 2584.53 719.48 2680.27 682.515C2753.76 654.062 2863.23 625.559 3014.85 634.268" stroke="#696969" stroke-opacity="0.1" stroke-width="5" stroke-miterlimit="10"/>
<path d="M0 304.855C93.5593 323.462 170.85 333.655 223.503 339.494C397.731 358.793 429.645 344.443 498.983 379.082C574.87 417.036 583.862 457.811 665.311 478.05C711.325 489.443 759.635 489.443 805.65 478.05C892.868 455.288 895.259 390.859 977.175 344.443C1079 286.744 1194.75 312.13 1205.88 314.752C1354.12 349.391 1423.25 504.327 1444.97 552.277C1541.29 764.663 1442.89 915.343 1548.93 992.687C1610.47 1037.57 1699.04 1027.33 1741.24 1022.38C1847.74 1010.01 1874.25 958.345 1980.34 928.357C2099.89 894.51 2126.24 943.203 2245.42 928.357C2435.56 904.457 2466.07 768.028 2676.84 685.884C2750.38 657.233 2860.89 629.324 3014.69 641.349" stroke="#696969" stroke-opacity="0.1" stroke-width="5" stroke-miterlimit="10"/>
<path d="M2.80859 311.039C94.7046 329.645 170.696 340.73 223.349 346.866C392.951 367.253 426.061 353.793 494.983 388.482C569.466 426.09 579.394 465.677 658.815 486.065C703.868 497.397 751.16 497.975 796.503 487.747C882.578 468.399 885.905 405.554 966.574 360.919C1066.21 305.398 1178.49 328.507 1191.48 330.536C1313.05 349.29 1380.11 463.352 1413.11 524.217C1419.87 536.638 1424.75 547.326 1428.7 555.046C1527.46 756.101 1434.21 900.892 1538.69 973.931C1601.06 1017.43 1690.36 1006.49 1734.33 1001.79C1774.63 997.579 1813.69 985.984 1849.36 967.646C1885.74 950.277 1919.79 930.681 1975.77 917.667C1992.92 913.708 2008.2 911.531 2021.92 909.65C2105.09 898.22 2137.16 926.376 2237.37 909.403C2276.14 902.923 2313.47 890.223 2347.77 871.844C2440.86 822.36 2499.08 733.288 2643.21 668.266C2651.66 664.439 2660.5 660.711 2669.72 657.083C2743.94 627.689 2856.11 598.444 3012.25 609.677" stroke="#696969" stroke-opacity="0.1" stroke-width="5" stroke-miterlimit="10"/>
<path d="M5.61328 317.227C95.6381 335.833 170.538 347.362 223.243 354.191C388.115 375.618 422.264 363.148 490.978 397.935C564.11 434.752 574.922 473.993 652.108 494.034C696.235 505.335 742.547 506.522 787.249 497.498C872.025 481.316 876.547 420.5 955.916 377.35C1053.43 324.352 1162.73 341.424 1176.98 346.323C1289.46 384.674 1362.43 471.271 1396.42 528.623C1403.34 540.302 1408.12 550.545 1412.02 557.77C1513.06 747.74 1425.32 886.296 1528.14 955.178C1591.03 997.239 1681.31 985.66 1727.05 981.157C1767.67 977.188 1807.25 966.557 1844.05 949.735C1881.01 934.048 1915.57 917.075 1970.88 907.03C1988.08 903.863 2003.47 902.675 2017.19 900.795C2100.09 889.364 2130.76 911.582 2228.95 890.403C2267.27 881.995 2303.96 867.902 2337.68 848.638C2427.29 799.154 2488.42 706.965 2635.46 639.765C2644.04 635.905 2652.98 632.046 2662.28 628.285C2737.13 598.149 2850.96 567.568 3009.49 577.959" stroke="#696969" stroke-opacity="0.1" stroke-width="5" stroke-miterlimit="10"/>
<path d="M8.42188 323.41C96.5755 341.967 170.331 354.189 222.985 361.76C383.179 384.078 418.472 372.746 486.874 407.533C558.603 443.756 570.35 482.255 645.665 502.197C688.843 513.4 734.135 515.092 778.103 507.145C861.267 494.032 867.244 435.245 945.315 393.777C1040.69 343.105 1146.52 356.07 1162.58 362.008C1251.89 396.088 1327.82 455.834 1379.79 532.927C1386.86 543.863 1391.59 553.661 1395.39 560.44C1498.61 738.93 1416.49 871.795 1517.48 936.52C1581.1 977.196 1672.22 964.875 1719.73 960.669C1760.67 956.866 1800.76 947.172 1838.65 931.918C1876.28 917.914 1911.42 903.613 1965.89 896.438C1983.25 894.162 1998.69 893.914 2012.41 892.034C2095.21 880.554 2124.21 896.982 2220.32 871.498C2258.12 861.117 2294.18 845.654 2327.39 825.577C2413.52 775.746 2477.82 680.934 2627.46 611.359C2636.09 607.4 2645.13 603.458 2654.59 599.532C2730.06 568.704 2845.61 536.786 3006.48 546.386" stroke="#696969" stroke-opacity="0.1" stroke-width="5" stroke-miterlimit="10"/>
<path d="M11.2305 329.547C97.513 348.153 170.177 361.019 222.934 369.134C378.451 392.342 414.939 382.149 482.821 416.986C553.095 452.664 565.985 490.321 639.014 510.214C681.287 521.475 725.628 523.839 768.957 517.142C850.925 507.245 857.942 450.338 934.765 410.503C1028.01 361.761 1129.11 381.159 1148.18 377.844C1258.12 398.973 1327.25 486.709 1363.21 537.381C1370.44 547.525 1375.07 556.828 1379.12 563.212C1484.63 730.37 1408.12 857.198 1507.24 917.668C1571.7 956.958 1663.49 943.944 1712.81 939.935C1754.12 936.317 1794.75 927.567 1833.66 913.907C1872.02 901.585 1907.57 890.006 1961.37 885.651C1978.84 884.216 1994.32 884.958 2008.15 883.078C2090.85 871.598 2118.19 882.039 2212.53 852.447C2252.5 839.878 2285.29 821.866 2317.94 802.27C2400.68 752.341 2467.84 654.362 2620.34 582.758C2629 578.7 2638.15 574.659 2647.78 570.634C2723.93 539.014 2841.14 505.76 3004.35 514.569" stroke="#696969" stroke-opacity="0.1" stroke-width="5" stroke-miterlimit="10"/>
<path d="M13.9805 335.73C98.2358 354.287 169.965 367.796 222.982 376.209C373.716 400.258 411.14 391.45 479.022 426.089C547.84 461.322 561.51 498.088 632.719 517.882C674.009 529.137 717.309 532.069 759.856 526.492C840.265 519.169 848.686 464.785 924.209 426.633C1015.27 380.662 1112.68 398.328 1133.89 393.528C1240.54 412.728 1309.62 494.377 1346.68 541.684C1354.06 551.086 1358.64 559.944 1362.79 565.882C1470.54 721.609 1399.8 842.45 1496.95 898.812C1562.23 936.717 1654.75 922.96 1705.79 919.249C1757.77 915.488 1794.41 905.245 1828.62 895.942C1867.7 885.303 1904.09 869.864 1956.74 874.862C1972.31 876.459 1988.02 876.21 2003.52 874.119C2086.16 862.639 2111.74 867.34 2204.26 833.344C2242.98 819.142 2275.21 799.596 2308.21 778.912C2387.58 729.032 2457.59 628.034 2612.9 554.105C2621.67 549.948 2630.92 545.791 2640.66 541.635C2717.43 509.321 2836.3 474.732 3001.9 482.699" stroke="#696969" stroke-opacity="0.1" stroke-width="5" stroke-miterlimit="10"/>
<path d="M16.7891 341.969C99.3812 360.525 169.811 374.678 222.62 383.635C368.832 408.377 407.451 400.855 475.022 435.593C542.592 470.331 557.094 506.158 626.172 526.001C686.362 543.271 736.52 539.559 750.918 536.343C827.689 519.023 839.539 479.683 913.815 443.214C1002.7 399.568 1096.52 415.651 1119.7 409.416C1223.03 426.735 1292 502.1 1330.31 546.141C1337.79 554.801 1342.32 563.213 1346.53 568.755C1456.51 713.051 1391.7 827.756 1486.87 880.209C1553.09 916.729 1646.18 902.23 1699.04 898.766C1751.9 895.302 1788.96 885.999 1823.78 878.131C1863.55 869.174 1901.18 855.764 1952.32 864.325C1967.76 867.043 1983.55 867.394 1999.1 865.364C2081.64 853.884 2105.5 852.844 2196.15 814.494C2233.68 798.659 2265.18 777.529 2298.23 755.954C2374.28 706.47 2447.2 602.058 2605.26 525.803C2614.1 521.547 2623.46 517.292 2633.33 513.036C2710.78 479.98 2831.31 444.055 2999.25 451.181" stroke="#696969" stroke-opacity="0.1" stroke-width="5" stroke-miterlimit="10"/>
<path d="M19.5938 348.008C100.315 366.713 169.601 381.558 222.462 390.861C363.996 416.197 403.759 410.111 471.017 444.849C537.029 478.993 552.622 514.127 619.673 533.92C678.199 551.19 726.954 549.062 741.56 545.994C816.823 530.06 829.921 494.432 903.002 459.644C989.7 418.275 1079.72 432.873 1105.09 425.005C1205.15 440.395 1273.86 509.129 1313.47 550.349C1319.31 557.055 1324.8 564.042 1329.89 571.281C1442.01 704.146 1383.27 812.665 1476.16 861.259C1543.36 896.343 1637.03 881.052 1691.65 877.935C1744.2 874.867 1782.82 866.405 1818.32 860.022C1858.81 852.747 1897.69 841.712 1947.28 853.44C1962.63 857.311 1978.63 858.286 1994.37 856.31C2076.86 844.781 2098.95 838.1 2187.78 795.296C2224.16 777.828 2254.83 755.214 2288.15 732.55C2360.92 683.066 2436.7 575.685 2597.52 497.104C2606.42 492.749 2615.88 488.395 2625.9 484.04C2703.86 450.242 2826.17 412.981 2996.5 419.315" stroke="#696969" stroke-opacity="0.1" stroke-width="5" stroke-miterlimit="10"/>
<path d="M22.4023 354.09C101.252 372.696 169.394 388.036 222.359 398.131C359.164 424.16 400.07 419.459 467.277 454.197C531.885 487.796 548.414 522.04 613.385 541.734C670.561 559.004 717.652 558.46 732.674 555.54C806.481 541.14 821.035 509.075 892.66 475.92C977.175 436.877 1063.72 449.941 1090.95 440.737C1187.68 454.197 1256.03 516.794 1297.15 554.551C1303.05 560.702 1308.58 567.162 1313.73 573.899C1428.08 695.284 1375.43 797.518 1466.02 842.351C1534.22 876.05 1628.4 860.067 1684.8 857.196C1737.81 854.425 1777.32 846.854 1813.44 841.955C1856.38 836.333 1899.94 836.55 1942.81 842.599C1961.11 844.825 1976.49 849.18 1990.06 847.547C2072.44 835.968 2092.77 823.745 2179.78 776.438C2214.81 757.387 2244.9 733.139 2278.53 709.486C2348.13 660.398 2426.62 549.602 2590.4 468.695C2599.34 464.291 2608.95 459.788 2619.14 455.285C2697.84 420.646 2821.85 382.147 2994.37 387.69" stroke="#696969" stroke-opacity="0.1" stroke-width="5" stroke-miterlimit="10"/>
<path d="M25.4688 362.599C102.447 381.156 169.498 397.238 222.463 407.779C354.382 434.352 396.431 431.036 463.015 465.923C526.271 498.978 543.683 532.38 606.628 552.025C661.932 569.295 707.776 570.285 723.213 567.563C795.67 554.846 811.315 526.145 881.848 494.673C964.129 457.956 1047.08 469.485 1076.3 458.846C1169.86 470.376 1237.43 526.442 1280.26 561.378C1286.21 566.966 1291.82 572.881 1297.04 579.093C1413.21 688.998 1367.16 784.898 1455.37 826.02C1524.65 858.333 1619.25 841.657 1677.47 839.034C1730.85 836.609 1771.29 829.929 1808.03 826.515C1849.93 822.605 1888.96 825.921 1937.98 834.383C1956.53 837.599 1971.87 842.795 1985.38 840.914C2067.66 829.335 2086.27 811.57 2171.46 759.661C2205.24 739.026 2234.61 713.245 2268.5 688.503C2334.98 639.909 2416.17 525.7 2582.5 442.418C2591.54 437.865 2601.21 433.312 2611.55 428.661C2690.87 393.428 2816.4 353.494 2991.46 358.195" stroke="#696969" stroke-opacity="0.1" stroke-width="5" stroke-miterlimit="10"/>
<path d="M28.0156 384.029C103.123 402.586 169.03 419.163 222.047 430.396C349.548 457.464 392.741 455.781 459.012 490.42C520.865 522.931 539.213 555.541 600.131 575.088C653.772 592.358 698.16 594.881 714.065 592.358C785.17 581.422 801.959 555.987 871.245 526.197C951.29 491.558 1030.66 501.851 1061.9 489.678C1152.03 499.575 1213.93 556.779 1263.67 580.877C1270.28 587.607 1275.99 593.051 1280.57 596.91C1398.71 695.285 1359.26 784.951 1444.97 822.361C1515.4 853.189 1610.42 835.82 1670.4 833.495C1724.14 831.416 1765.52 825.627 1802.89 823.598C1845.51 821.371 1885.27 827.952 1933.09 838.691C1951.91 842.897 1967.19 848.934 1980.65 847.004C2062.88 835.425 2079.72 812.365 2163.04 755.656C2195.63 733.536 2224.27 706.172 2258.42 680.291C2321.83 632.242 2405.67 514.519 2574.75 428.911C2583.87 424.326 2593.65 419.641 2604.12 414.858C2684.11 379.13 2811.46 337.86 2988.7 341.967" stroke="#696969" stroke-opacity="0.1" stroke-width="5" stroke-miterlimit="10"/>
<path d="M30.668 403.329C104.06 421.886 168.824 439.008 221.893 450.834C344.767 478.348 389.312 478.348 455.012 513.185C515.461 545.102 534.745 576.92 593.583 596.417C645.561 613.638 688.494 617.497 704.919 615.37C774.725 606.314 792.605 584.096 860.851 555.988C938.817 523.824 1014.44 532.384 1047.71 518.776C1134.51 526.496 1195.79 578.504 1247.25 598.545C1252.64 603.666 1258.35 608.475 1264.35 612.945C1384.32 699.889 1351.62 782.824 1434.79 816.919C1506.41 846.263 1601.74 828.202 1663.49 826.222C1717.65 824.441 1759.96 819.542 1797.9 819.096C1841.25 818.552 1881.79 828.498 1928.57 841.414C1947.59 846.659 1962.88 853.488 1976.34 851.311C2058.41 839.682 2073.59 811.129 2155.04 749.818C2186.22 726.214 2214.34 697.316 2248.6 670.297C2308.94 622.891 2395.38 501.556 2567.22 413.573C2576.37 408.624 2586.29 404.072 2596.9 399.222C2677.51 362.455 2806.37 320.047 2986.16 322.967" stroke="#696969" stroke-opacity="0.1" stroke-width="5" stroke-miterlimit="10"/>
<path d="M33.5781 422.628C105.047 441.185 168.719 458.851 221.736 471.37C339.985 499.181 385.361 500.814 451.009 535.7C510.055 567.073 530.274 598.1 587.085 617.497C637.504 634.718 678.878 636.153 695.77 638.182C764.121 646.495 783.248 611.955 850.039 585.58C925.666 555.89 997.811 562.768 1033.1 547.675C1116.63 553.465 1177.18 600.079 1230.62 616.062C1236.06 620.681 1241.83 624.946 1247.87 628.829C1369.61 704.293 1343.77 780.548 1424.6 811.278C1497.37 839.088 1593.06 820.432 1656.62 818.701C1711.2 817.265 1754.39 813.307 1792.96 814.296C1837.04 815.435 1878.26 828.845 1924.05 843.987C1943.33 850.271 1958.51 857.843 1971.97 855.962C2053.99 844.284 2067.51 810.387 2146.98 744.326C2177.18 719.237 2204.41 688.755 2239.03 660.598C2296.21 613.885 2385.4 488.888 2559.99 398.332C2569.24 393.581 2579.24 388.633 2589.98 383.486C2671.22 345.977 2801.79 302.035 2983.92 304.311" stroke="#696969" stroke-opacity="0.1" stroke-width="5" stroke-miterlimit="10"/>
<path d="M36.3867 441.976C105.984 460.731 168.461 478.693 221.582 491.856C335.205 519.963 381.673 523.328 447.008 558.264C504.651 589.043 525.806 619.08 580.538 638.874C629.345 656.095 669.316 658.668 686.572 661.29C753.207 671.187 773.842 640.111 839.438 615.418C912.83 587.757 981.44 593.398 1018.71 576.821C1098.91 580.73 1159.05 621.851 1213.83 633.827C1219.33 637.954 1225.15 641.676 1231.24 644.961C1354.64 708.993 1335.98 778.568 1413.79 805.933C1487.96 832.11 1583.81 812.861 1649.09 811.475C1704.08 810.337 1748.21 807.318 1787.4 809.793C1832.21 812.613 1874.1 829.586 1918.9 846.56C1938.4 853.982 1953.57 862.296 1966.98 860.366C2048.9 848.687 2060.85 809.496 2138.51 738.634C2167.51 712.061 2194.02 680.045 2228.85 650.701C2283.32 604.73 2374.8 476.021 2552.14 383.486C2561.47 378.57 2571.57 373.622 2582.45 368.64C2664.36 330.439 2796.54 285.16 2981.06 286.645" stroke="#696969" stroke-opacity="0.1" stroke-width="5" stroke-miterlimit="10"/>
<path d="M39.1914 461.276C106.762 479.783 168.251 498.488 221.424 512.344C330.577 540.649 377.98 545.894 443.004 580.781C499.295 611.015 521.334 640.508 574.039 659.955C621.182 677.176 659.75 680.887 677.422 684.104C742.29 695.832 764.484 667.922 828.832 644.962C899.989 619.576 965.013 623.733 1004.31 605.671C1081.23 607.651 1140.49 643.378 1197.25 651.296C1202.81 654.914 1208.69 658.076 1214.82 660.747C1339.56 713.547 1328.33 775.897 1403.39 800.243C1478.45 824.59 1574.92 805.192 1642.02 803.955C1697.37 803.113 1742.44 800.986 1782.36 804.944C1827.84 809.447 1870.41 829.687 1914.28 848.985C1933.98 857.546 1949.15 866.503 1962.51 864.622C2044.32 852.895 2054.77 808.507 2130.19 732.747C2158.1 704.739 2183.88 671.188 2218.92 640.607C2270.48 595.527 2364.45 463.008 2544.5 367.899C2553.86 362.951 2564.1 358.002 2575.12 352.609C2657.55 313.467 2791.45 266.852 2978.31 267.743" stroke="#696969" stroke-opacity="0.1" stroke-width="5" stroke-miterlimit="10"/>
<path d="M42 480.525C107.855 499.032 168.097 518.232 221.322 532.731C325.693 561.234 374.292 568.31 439.003 603.246C493.892 632.937 516.969 661.588 567.492 680.788C613.076 698.009 650.24 702.858 668.276 706.668C731.428 719.98 755.078 695.534 818.283 674.256C887.153 651.097 948.59 653.869 989.808 634.322C1063.41 634.322 1121.99 664.656 1180.51 668.516C1186.19 671.625 1192.14 674.257 1198.29 676.384C1324.91 718.05 1320.75 773.076 1393 794.453C1469.87 817.167 1566.03 797.027 1634.95 796.334C1690.67 795.74 1736.67 794.552 1777.11 799.996C1823.32 806.181 1866.46 830.231 1909.44 851.261C1929.35 861.158 1944.48 870.61 1957.83 868.68C2039.6 857.002 2048.54 807.369 2121.88 726.709C2148.64 697.266 2173.85 662.38 2208.89 630.364C2257.64 586.174 2354.01 449.845 2536.81 352.361C2546.27 347.314 2556.58 342.101 2567.74 336.724C2650.9 297.136 2786.46 249.137 2975.71 248.988" stroke="#696969" stroke-opacity="0.1" stroke-width="5" stroke-miterlimit="10"/>
<path d="M44.8047 499.921C108.789 518.428 167.887 538.073 221.164 553.315C320.961 581.917 370.651 590.923 434.999 625.958C488.484 655.005 512.393 682.914 560.992 702.015C592.807 713.892 625.64 723.13 659.126 729.627C720.563 744.472 745.668 723.491 807.677 703.945C874.26 683.013 932.423 684.151 975.512 663.318C1045.79 661.487 1103.74 686.328 1164.03 686.18C1169.8 688.764 1175.8 690.834 1181.97 692.365C1309.73 722.848 1313.26 770.402 1382.6 788.86C1460.93 809.693 1557.19 790.443 1627.83 788.86C1683.96 787.623 1730.85 788.365 1771.96 795.243C1818.74 803.111 1862.61 830.822 1904.71 853.734C1924.78 864.62 1939.95 874.913 1953.26 872.983C2034.92 861.255 2042.45 806.476 2113.66 720.868C2139.29 690.04 2163.72 653.52 2199.01 620.316C2244.9 577.067 2343.66 436.878 2529.22 337.019C2538.73 332.07 2549.13 326.578 2560.41 321.085C2644.25 280.656 2781.47 231.37 2973.06 230.43" stroke="#696969" stroke-opacity="0.1" stroke-width="5" stroke-miterlimit="10"/>
<path d="M47.6133 519.269C109.986 537.776 167.733 557.817 221.01 573.701C316.233 602.303 366.962 613.289 431.051 648.373C483.028 676.827 507.925 703.994 554.445 722.995C585.45 735.192 617.388 745.117 649.979 752.686C709.805 768.966 736.262 751.498 797.076 733.783C861.372 714.979 915.792 714.93 961.116 692.464C1028.12 688.653 1085.39 708.101 1147.4 703.895C1153.27 705.935 1159.33 707.459 1165.49 708.447C1294.71 727.993 1305.83 767.828 1372.21 783.465C1452.04 802.269 1548.3 782.772 1620.76 781.585C1677.31 780.694 1725.08 782.327 1766.82 790.69C1814.43 800.24 1858.66 831.613 1900.04 856.405C1920.15 868.479 1935.43 879.415 1948.69 877.485C2030.29 865.708 2036.42 805.783 2105.4 715.226C2129.98 682.963 2153.74 645.008 2189.08 610.518C2232.33 568.258 2333.37 424.16 2521.74 321.876C2531.3 316.68 2541.85 311.237 2553.29 305.596C2637.8 264.474 2776.79 213.852 2970.61 212.07" stroke="#696969" stroke-opacity="0.1" stroke-width="5" stroke-miterlimit="10"/>
<path d="M50.3672 538.615C110.661 557.073 167.576 577.559 220.853 594.334C311.346 622.986 363.323 635.951 427.047 671.084C477.725 698.994 503.454 725.517 547.947 744.272C578.141 756.559 609.152 766.94 640.778 775.348C699.045 793.014 726.853 779.158 786.315 763.175C848.376 746.598 899.21 745.163 946.562 721.163C1010.23 715.472 1066.84 729.476 1130.67 721.163C1136.64 722.677 1142.75 723.655 1148.91 724.082C1279.58 732.791 1298.14 764.56 1361.65 777.575C1443 794.3 1539.26 774.606 1613.54 773.913C1670.45 773.319 1719.15 775.843 1761.51 785.69C1809.85 796.923 1854.55 831.958 1895.15 858.63C1915.37 871.941 1930.7 883.372 1943.96 881.541C2025.46 869.764 2030.34 804.643 2097.03 709.138C2120.52 675.489 2143.81 636.149 2179 600.272C2219.75 559.052 2322.87 411.243 2514.04 306.336C2523.66 301.041 2534.31 295.499 2545.91 289.759C2631.04 247.944 2771.59 195.936 2967.91 193.512" stroke="#696969" stroke-opacity="0.1" stroke-width="5" stroke-miterlimit="10"/>
<path d="M53.1719 557.968C111.594 576.475 167.522 597.258 220.695 614.924C306.874 643.477 359.631 658.569 423.043 693.703C472.37 721.019 498.982 746.701 541.396 765.455C570.791 778.022 600.918 788.976 631.628 798.264C688.336 817.315 717.391 807.022 775.866 792.82C835.64 778.371 882.939 775.6 932.318 750.165C992.715 742.544 1048.64 751.105 1114.24 738.833C1120.34 739.608 1126.48 740.021 1132.64 740.07C1264.66 745.662 1290.86 761.596 1351.41 772.086C1434.26 786.437 1530.58 765.851 1606.57 766.544C1663.74 767.088 1713.54 769.711 1756.52 781.043C1805.59 793.958 1850.65 832.705 1890.57 861.208C1910.9 875.756 1926.33 887.83 1939.54 885.95C2020.98 874.172 2024.62 803.954 2088.92 703.501C2111.37 668.417 2133.98 627.691 2169.28 590.331C2207.22 550.149 2312.79 398.183 2506.45 291.099C2516.19 285.689 2526.91 280.064 2538.63 274.225C2624.39 231.57 2766.65 178.275 2965.31 174.91" stroke="#696969" stroke-opacity="0.1" stroke-width="5" stroke-miterlimit="10"/>
<path d="M55.9805 577.265C112.532 595.723 167.368 616.852 220.541 635.359C302.249 663.763 355.942 680.984 419.043 716.217C466.966 742.938 494.462 767.878 534.9 786.534C572.324 803.853 602.471 813.75 622.482 821.173C677.682 841.511 707.985 834.831 765.264 822.509C817.077 811.183 868.069 796.687 917.922 779.111C972.602 760.802 1029.67 742.592 1097.61 756.398C1103.78 757.215 1110.04 757.081 1116.16 756.002C1249.95 743.433 1283.37 758.476 1341.02 766.542C1425.43 778.32 1521.69 758.031 1599.5 759.12C1657.25 759.911 1707.77 763.524 1751.38 776.291C1801.12 791.136 1846.6 833.395 1885.84 863.729C1906.22 879.515 1921.81 892.183 1935.02 890.253C2016.31 878.426 2018.8 803.062 2080.55 697.66C2101.97 661.141 2124.06 619.129 2159.19 580.333C2194.33 541.537 2302.5 385.563 2498.71 275.708C2508.48 270.314 2519.5 264.524 2531.2 258.537C2617.63 215.188 2761.51 160.558 2962.61 156.352" stroke="#696969" stroke-opacity="0.1" stroke-width="5" stroke-miterlimit="10"/>
<path d="M58.7852 596.614C113.465 615.071 167.262 636.201 220.435 655.995C297.621 684.25 352.302 703.648 415.038 738.931C461.818 765.058 489.99 789.256 528.349 807.813C564.161 825.182 593.269 836.019 613.332 844.085C667.077 865.709 698.523 862.592 754.659 852.151C809.807 841.907 846.399 828.843 903.522 808.11C954.979 789.404 1009.76 785.792 1081.02 773.965C1087.57 772.877 1093.86 772.976 1099.74 771.986C1235.19 748.827 1275.89 755.26 1330.62 761C1416.54 769.957 1512.85 750.262 1592.38 751.698C1650.54 752.786 1702 757.339 1746.23 771.491C1796.7 787.821 1842.49 833.94 1881.11 866.155C1901.54 883.177 1917.5 896.439 1930.44 894.509C2011.63 882.682 2013.03 802.122 2072.44 691.624C2092.87 653.669 2114.49 610.469 2149.42 570.09C2182.32 532.086 2292.36 372.401 2491.28 260.17C2501.15 254.677 2512.07 248.789 2524.07 242.653C2611.14 198.612 2756.72 142.645 2960.11 137.598" stroke="#696969" stroke-opacity="0.1" stroke-width="5" stroke-miterlimit="10"/>
<path d="M61.8516 615.912C114.661 634.37 167.47 655.895 220.539 676.332C293.307 704.39 348.871 725.817 411.296 761.346C456.464 786.88 485.779 810.336 522.112 828.843C556.261 846.162 584.121 857.89 604.444 866.797C656.785 889.708 689.375 890.154 744.367 881.643C797.176 873.428 830.597 860.117 889.384 837.107C937.775 818.006 991.571 809.049 1064.65 791.581C1071.15 790.047 1077.59 789.404 1083.57 787.969C1220.79 754.27 1268.82 761.099 1320.48 755.458C1408.5 746.255 1497.05 742.552 1585.57 744.373C1644.15 745.709 1696.49 751.202 1741.5 766.938C1792.7 784.95 1838.75 834.781 1876.64 868.826C1897.07 887.086 1913.03 900.892 1926.13 899.012C2007.26 887.135 2007.52 801.429 2064.49 686.229C2083.93 646.889 2105.19 602.502 2139.8 560.49C2170.21 523.624 2282.27 359.831 2483.95 245.275C2493.87 239.683 2504.74 233.695 2517.06 227.46C2604.79 182.628 2751.99 125.325 2957.77 119.535" stroke="#696969" stroke-opacity="0.1" stroke-width="5" stroke-miterlimit="10"/>
<path d="M64.3984 629.818C115.336 648.276 167.158 669.95 220.331 691.426C288.733 719.187 345.076 743.088 407.449 778.469C451.266 803.211 481.465 826.172 515.77 844.531C548.256 861.9 574.92 874.518 595.4 884.118C646.493 908.266 680.071 912.275 733.919 905.693C784.441 899.508 814.848 886.196 875.142 860.267C920.57 840.72 973.587 826.617 1048.23 803.36C1054.72 801.331 1061.17 799.995 1067.3 798.065C1206.39 753.925 1261.54 749.768 1310.24 744.127C1399.27 733.697 1488.97 729.348 1578.66 731.113C1637.6 732.746 1690.88 739.179 1736.3 756.399C1788.28 776.193 1834.54 829.586 1872.07 865.265C1892.44 884.761 1908.45 899.211 1921.71 897.281C2002.74 885.355 2002.01 794.502 2056.38 674.305C2074.83 633.48 2095.88 588.004 2130.03 544.359C2158.05 508.582 2272.09 340.731 2476.51 223.8C2486.49 218.109 2497.67 212.023 2509.94 205.689C2598.3 160.114 2747.21 101.475 2955.33 94.8438" stroke="#696969" stroke-opacity="0.1" stroke-width="5" stroke-miterlimit="10"/>
<path d="M67.0508 637.29C116.117 655.747 167.055 677.421 219.812 700.036C283.849 727.499 341.232 753.578 402.877 789.107C445.342 813.404 476.373 835.524 508.651 853.734C539.525 871.152 564.994 884.562 585.681 895.152C635.528 920.538 670.093 928.059 722.746 923.457C770.981 919.251 798.581 906.286 860.174 877.338C902.692 857.544 955.085 838.146 1031.02 809.05C1037.57 806.575 1044.07 804.546 1050.26 802.122C1191.43 747.442 1253.28 732.151 1299.28 726.658C1388.84 716.019 1486.09 709.19 1570.97 711.813C1630.32 713.644 1684.48 721.066 1730.59 739.772C1783.24 761.149 1829.71 818.303 1866.77 856.109C1887.14 876.892 1903.52 891.837 1916.56 889.907C1997.54 878.031 1995.78 781.932 2047.6 656.836C2065.06 614.576 2086.01 568.061 2119.53 522.684C2145.21 488.045 2261.17 316.137 2468.35 196.83C2478.44 191.09 2489.67 184.855 2502.09 178.372C2591.13 132.105 2741.65 72.1297 2952.16 64.5586" stroke="#696969" stroke-opacity="0.1" stroke-width="5" stroke-miterlimit="10"/>
<path d="M69.9609 644.416C117.208 662.824 167.315 684.498 219.812 708.35C281.185 735.728 341.006 766.153 399.03 799.5C440.144 823.252 471.798 844.679 502.309 862.691C531.468 880.258 555.794 894.41 576.689 905.841C625.339 932.513 660.84 943.499 712.298 940.926C758.298 938.649 783.247 926.328 845.932 894.114C885.746 873.677 937.568 849.33 1014.6 814.444C1021.15 811.475 1027.7 808.753 1033.99 805.883C1177.18 740.663 1245.27 711.615 1289.04 708.894C1380.47 703.352 1477.35 689.1 1564.05 692.218C1623.83 694.247 1678.87 702.758 1725.6 722.898C1778.98 745.958 1825.6 807.021 1862.19 846.609C1882.46 868.629 1899.1 884.167 1912.14 882.287C1993.02 870.312 1990.11 769.017 2039.49 639.022C2056.93 590.326 2080.52 543.832 2109.76 500.565C2133.15 466.965 2250.98 291.049 2460.87 169.367C2471 163.528 2482.34 157.194 2494.91 150.612C2584.58 103.602 2736.82 42.2912 2949.67 34.0273" stroke="#696969" stroke-opacity="0.1" stroke-width="5" stroke-miterlimit="10"/>
<path d="M72.7656 651.244C184.114 696.443 291.824 749.368 395.026 809.594C561.041 906.533 606.418 958.888 701.692 958.047C771.082 957.403 787.455 929.296 997.963 819.491C1156.29 736.901 1235.45 695.78 1278.64 690.832C1433.85 673.561 1603.5 652.184 1720.45 705.677C1804.76 744.225 1871.18 879.268 1907.57 873.923C2015.42 857.989 1972.85 673.512 2099.88 478.049C2121.04 445.488 2240.69 265.613 2453.33 141.556C2535.87 93.4078 2701.57 13.3422 2947.12 3" stroke="#696969" stroke-opacity="0.1" stroke-width="5" stroke-miterlimit="10"/>
</svg>
