<svg width="17" height="13" viewBox="0 0 17 13" fill="none" xmlns="http://www.w3.org/2000/svg">
<path d="M8.5 9.6875C7.95115 9.6875 7.4023 9.50747 6.93414 9.14264L0 3.75078V11.2813C0 12.1611 0.713535 12.875 1.59375 12.875H15.4062C16.2865 12.875 17 12.1615 17 11.2813V3.75078L10.0672 9.14629C9.59902 9.5082 9.04785 9.6875 8.5 9.6875ZM0.540879 2.82441L7.58658 8.30625C8.12414 8.72461 8.87719 8.72461 9.41475 8.30625L16.4604 2.82441C16.7709 2.55879 17 2.15039 17 1.71875C17 0.838535 16.2861 0.125 15.4062 0.125H1.59375C0.713535 0.125 0 0.838535 0 1.71875C0 2.15039 0.199551 2.55879 0.540879 2.82441Z" fill="#696969"/>
</svg>
