<svg width="100" height="100" viewBox="0 0 100 100" fill="none" xmlns="http://www.w3.org/2000/svg">
<path d="M69.4062 29.5627C70.8853 29.7294 72.3541 29.8127 73.7395 29.8127C75.7083 29.8127 77.5416 29.6461 79.1041 29.3023C82.0728 28.6565 83.7499 27.4898 83.927 25.9169C84.1041 24.344 82.7499 22.8232 79.9999 21.5315C77.5416 20.3648 74.2083 19.5002 70.6145 19.094C63.8749 18.3232 56.4895 19.3336 56.0937 22.7294C55.7083 26.1357 62.6666 28.7919 69.4166 29.5627H69.4062ZM70.4374 20.6461C73.8645 21.0419 77.0208 21.8544 79.3333 22.9482C81.6874 24.0627 82.4478 25.1252 82.3749 25.7502C82.302 26.3752 81.3228 27.2398 78.7708 27.7919C76.2708 28.3336 73.0104 28.4169 69.5833 28.0211C61.927 27.1461 57.4687 24.4586 57.6458 22.9169C57.8228 21.3752 62.7708 19.7711 70.4374 20.6565V20.6461Z" fill="white"/>
<path d="M51.5729 22.906L47.4062 23.656C46.9791 23.7289 46.6979 24.1352 46.7708 24.5623C46.8437 24.9373 47.1666 25.2081 47.5416 25.2081C47.5833 25.2081 47.6354 25.2081 47.677 25.1977L51.8437 24.4477C52.2708 24.3748 52.552 23.9685 52.4791 23.5414C52.4062 23.1144 51.9999 22.8331 51.5729 22.906Z" fill="white"/>
<path d="M53.3021 18.4268C53.4479 18.5414 53.6146 18.5935 53.7916 18.5935C54.0208 18.5935 54.25 18.4893 54.4062 18.3018C54.6771 17.9685 54.6146 17.4685 54.2812 17.2081L50.7396 14.3852C50.4062 14.1248 49.9166 14.1664 49.6458 14.5102C49.375 14.8435 49.4375 15.3435 49.7708 15.6039L53.3125 18.4268H53.3021Z" fill="white"/>
<path d="M47.1875 19.8544L51.3437 21.1356C51.4166 21.1565 51.5 21.1669 51.5729 21.1669C51.9062 21.1669 52.2187 20.9481 52.3229 20.6148C52.4479 20.1981 52.2187 19.7606 51.8021 19.6356L47.6458 18.3544C47.2396 18.2294 46.7916 18.4585 46.6666 18.8752C46.5416 19.2919 46.7708 19.7294 47.1875 19.8544Z" fill="white"/>
<path d="M86.9999 27.4168C86.7916 27.7918 86.927 28.271 87.302 28.4793L91.1353 30.6252C91.2603 30.6981 91.3853 30.7293 91.5207 30.7293C91.7916 30.7293 92.0624 30.5835 92.2082 30.3335C92.4166 29.9585 92.2812 29.4793 91.9062 29.271L88.0728 27.1252C87.6978 26.9168 87.2187 27.0522 87.0103 27.4272L86.9999 27.4168Z" fill="white"/>
<path d="M86.9895 22.4072C87.0729 22.4072 87.1666 22.3968 87.2604 22.3551L91.2916 20.8863C91.6979 20.7405 91.9062 20.2926 91.7604 19.8863C91.6145 19.4801 91.1666 19.2718 90.7604 19.4176L86.7291 20.8863C86.3229 21.0322 86.1145 21.4801 86.2604 21.8863C86.375 22.1988 86.677 22.3968 86.9895 22.3968V22.4072Z" fill="white"/>
<path d="M92.8647 24.021L88.5834 23.8543C88.1355 23.7918 87.7918 24.1773 87.7709 24.6043C87.7501 25.0314 88.0938 25.396 88.5209 25.4168L92.8022 25.5835C92.8022 25.5835 92.823 25.5835 92.8334 25.5835C93.2501 25.5835 93.5938 25.2502 93.6147 24.8335C93.6355 24.4064 93.2918 24.0418 92.8647 24.021Z" fill="white"/>
<path d="M64.8439 50.9903C64.4689 50.7819 63.9897 50.9174 63.7814 51.2924C63.6876 51.459 63.021 52.3549 62.2605 52.3861C61.6564 52.3861 61.0314 51.7715 60.6564 51.2194C60.4064 50.8653 59.9272 50.7715 59.573 51.0215C59.2189 51.2715 59.1355 51.7507 59.3751 52.1049C60.2189 53.3236 61.1772 53.9382 62.2189 53.9382C62.2605 53.9382 62.3022 53.9382 62.3543 53.9382C64.1043 53.8549 65.1459 52.0632 65.1564 52.0424C65.3647 51.6674 65.2293 51.1882 64.8543 50.9799L64.8439 50.9903Z" fill="white"/>
<path d="M58.2083 45.834C59.3589 45.834 60.2917 44.4349 60.2917 42.709C60.2917 40.9831 59.3589 39.584 58.2083 39.584C57.0577 39.584 56.125 40.9831 56.125 42.709C56.125 44.4349 57.0577 45.834 58.2083 45.834Z" fill="white"/>
<path d="M69.6666 47.916C70.8172 47.916 71.7499 46.5169 71.7499 44.791C71.7499 43.0651 70.8172 41.666 69.6666 41.666C68.516 41.666 67.5833 43.0651 67.5833 44.791C67.5833 46.5169 68.516 47.916 69.6666 47.916Z" fill="white"/>
<path d="M33.5939 43.6986C33.2189 43.4903 32.7397 43.6257 32.5314 44.0007C32.4376 44.1674 31.7709 45.0632 31.0105 45.0944C31.0001 45.0944 30.9793 45.0944 30.9689 45.0944C30.3439 45.0944 29.7709 44.4694 29.4064 43.9278C29.1564 43.5736 28.6772 43.4903 28.323 43.7299C27.9689 43.9694 27.8855 44.459 28.1251 44.8132C28.9689 46.0319 29.9272 46.6465 30.9689 46.6465C31.0105 46.6465 31.0522 46.6465 31.1043 46.6465C32.8543 46.5632 33.8959 44.7715 33.9064 44.7507C34.1147 44.3757 33.9793 43.8965 33.6043 43.6882L33.5939 43.6986Z" fill="white"/>
<path d="M26.9583 38.541C28.1089 38.541 29.0417 37.1419 29.0417 35.416C29.0417 33.6901 28.1089 32.291 26.9583 32.291C25.8077 32.291 24.875 33.6901 24.875 35.416C24.875 37.1419 25.8077 38.541 26.9583 38.541Z" fill="white"/>
<path d="M38.4166 40.625C39.5672 40.625 40.4999 39.2259 40.4999 37.5C40.4999 35.7741 39.5672 34.375 38.4166 34.375C37.266 34.375 36.3333 35.7741 36.3333 37.5C36.3333 39.2259 37.266 40.625 38.4166 40.625Z" fill="white"/>
<path d="M87.3542 68.2917C88.2709 68.2917 89.0522 68.0208 89.6251 67.4688C90.6667 66.4583 90.5626 64.5833 89.3438 62.0313C88.3647 59.9896 86.7709 57.7604 84.9584 55.8646C85.6876 53.8438 86.0938 51.6771 86.0938 49.4271C86.0938 39.0625 77.6667 30.6354 67.3022 30.6354C62.0626 30.6354 57.323 32.8021 53.9063 36.2708C51.3959 28.5938 44.2501 23.3438 36.0522 23.3438C25.6876 23.3438 17.2605 31.7708 17.2605 42.1354C17.2605 47.5938 19.5626 52.5938 23.4376 56.0833C18.2813 59.2604 13.8334 64.2917 10.5105 70.7708L11.9063 71.4792C15.198 65.0625 19.6147 60.125 24.7188 57.125C26.073 58.1458 27.573 59 29.2084 59.6354C29.3022 59.6771 29.3959 59.6875 29.4897 59.6875C29.8022 59.6875 30.0938 59.5 30.2188 59.1875C30.3751 58.7813 30.1772 58.3333 29.7813 58.1771C23.1251 55.5729 18.823 49.2708 18.823 42.125C18.823 32.625 26.5522 24.8958 36.0522 24.8958C43.8855 24.8958 50.6563 30.1146 52.6772 37.6354C50.073 40.8646 48.5105 44.9583 48.5105 49.4167C48.5105 50.8229 48.6667 52.1979 48.9584 53.5313C47.1563 55.5625 44.8959 57.1667 42.3751 58.1563C41.9688 58.3125 41.7813 58.7708 41.9376 59.1667C42.0626 59.4688 42.3542 59.6563 42.6667 59.6563C42.7605 59.6563 42.8542 59.6354 42.9584 59.6042C45.3959 58.6458 47.6147 57.1667 49.448 55.2917C50.4584 58.4063 52.2709 61.1771 54.6876 63.3542C49.5313 66.5313 45.0834 71.5625 41.7605 78.0417L43.1563 78.75C46.448 72.3333 50.8647 67.3958 55.9688 64.3958C57.323 65.4167 58.823 66.2708 60.4584 66.9063C60.5522 66.9479 60.6459 66.9583 60.7397 66.9583C61.0522 66.9583 61.3438 66.7708 61.4688 66.4583C61.6251 66.0521 61.4272 65.6042 61.0313 65.4479C54.3751 62.8438 50.073 56.5417 50.073 49.3958C50.073 45.2396 51.5522 41.4271 54.0105 38.4479C54.0938 38.3854 54.1667 38.3021 54.2188 38.2188C57.3855 34.5208 62.073 32.1771 67.3022 32.1771C76.8022 32.1771 84.5313 39.9063 84.5313 49.4063C84.5313 56.5313 80.2501 62.8229 73.6251 65.4375C73.2188 65.5938 73.0313 66.0521 73.1876 66.4479C73.3438 66.8542 73.8022 67.0521 74.198 66.8854C75.8126 66.25 77.3022 65.3958 78.6355 64.3854C83.5626 67.2813 87.8751 72.0104 91.1147 78.125L92.4897 77.3854C90.5626 73.7604 88.2605 70.625 85.698 68.0104C86.2813 68.1667 86.8334 68.2708 87.3438 68.2708L87.3542 68.2917ZM87.9376 62.7083C88.9584 64.8333 88.8959 65.9896 88.5417 66.3438C87.4272 67.4271 83.8855 66.2396 80.448 62.8646C82.0522 61.3021 83.3542 59.4688 84.3126 57.4479C85.8022 59.0938 87.1251 61.0104 87.9376 62.6979V62.7083Z" fill="white"/>
</svg>
