<svg width="23" height="25" viewBox="0 0 23 25" fill="none" xmlns="http://www.w3.org/2000/svg">
<path d="M20.7192 1.37986C18.0653 -0.756938 14.1546 -0.369531 11.9846 2.24732L1.40094 15.0114C-0.768239 17.6267 -0.375105 21.482 2.28004 23.6192C4.93557 25.7572 8.84628 25.3697 11.0159 22.7529L21.5991 9.98763C23.7683 7.37156 23.3752 3.51783 20.7192 1.37986ZM11.459 19.1826L10.3006 20.5797C8.7352 22.4687 5.86941 22.7122 3.89859 21.1255C3.7764 21.027 3.66295 20.9226 3.55346 20.8151C3.34241 20.559 3.68833 20.5008 3.68833 20.5008L3.6923 20.493C4.91494 20.6536 8.15324 20.8323 11.1595 18.8483L11.1642 18.8597C11.1642 18.8597 11.3289 18.7889 11.4078 18.8597C11.4871 18.9312 11.5423 19.0817 11.459 19.1826ZM20.3237 9.42353L18.51 11.6115C18.4759 11.6553 18.4465 11.7014 18.4104 11.7448L16.1472 14.4751L8.70743 8.69172L12.9938 3.52291C14.6477 1.52802 17.6297 1.23248 19.6533 2.86185C21.6777 4.49162 21.9772 7.42942 20.3237 9.42353Z" fill="white"/>
</svg>
