<svg width="25" height="24" viewBox="0 0 25 24" fill="none" xmlns="http://www.w3.org/2000/svg">
<g clip-path="url(#clip0_4631_11096)">
<path d="M9.5 7.5V18.8128C9.49993 18.9362 9.46943 19.0576 9.41121 19.1663C9.353 19.2751 9.26886 19.3678 9.16625 19.4363L8.135 20.1234C8.03497 20.1901 7.92037 20.2318 7.80087 20.2449C7.68137 20.2581 7.56046 20.2423 7.44833 20.1989C7.33621 20.1555 7.23616 20.0858 7.15661 19.9957C7.07706 19.9055 7.02035 19.7976 6.99125 19.6809L5.75 15" stroke="#F1F1F1" stroke-linecap="round" stroke-linejoin="round"/>
<path d="M20.75 18.7489C20.75 18.8917 20.7091 19.0316 20.6323 19.152C20.5555 19.2724 20.446 19.3684 20.3165 19.4287C20.187 19.4889 20.043 19.511 19.9014 19.4922C19.7598 19.4734 19.6265 19.4146 19.5172 19.3226C14.6047 15.2014 9.5 14.9989 9.5 14.9989H5.75C4.75544 14.9989 3.80161 14.6038 3.09835 13.9005C2.39509 13.1973 2 12.2434 2 11.2489C2 10.2543 2.39509 9.3005 3.09835 8.59724C3.80161 7.89398 4.75544 7.49889 5.75 7.49889H9.5C9.5 7.49889 14.6047 7.29639 19.5172 3.17607C19.6264 3.08418 19.7596 3.02537 19.9011 3.00655C20.0426 2.98773 20.1866 3.00968 20.316 3.06984C20.4455 3.12999 20.5551 3.22584 20.632 3.34612C20.7088 3.46641 20.7498 3.60614 20.75 3.74889V18.7489Z" stroke="#F1F1F1" stroke-linecap="round" stroke-linejoin="round"/>
</g>
<defs>
<clipPath id="clip0_4631_11096">
<rect width="24" height="24" fill="white" transform="matrix(-1 0 0 1 24.5 0)"/>
</clipPath>
</defs>
</svg>
