<svg width="13" height="13" viewBox="0 0 13 13" fill="none" xmlns="http://www.w3.org/2000/svg">
<path d="M12.3917 9.24546C13.0371 7.86044 13.174 6.29231 12.7782 4.81644C12.3824 3.34056 11.4793 2.0513 10.2275 1.17503C8.97575 0.298758 7.45526 -0.108494 5.93306 0.0247817C4.41087 0.158058 2.98429 0.823342 1.90381 1.90381C0.823342 2.98429 0.158058 4.41087 0.0247817 5.93306C-0.108494 7.45526 0.298758 8.97575 1.17503 10.2275C2.0513 11.4793 3.34056 12.3824 4.81644 12.7782C6.29231 13.174 7.86044 13.0371 9.24546 12.3917L11.5341 12.9634C11.7316 13.0128 11.9384 13.0101 12.1346 12.9558C12.3307 12.9014 12.5094 12.7972 12.6533 12.6533C12.7972 12.5094 12.9014 12.3307 12.9558 12.1346C13.0101 11.9384 13.0128 11.7316 12.9634 11.5341L12.3917 9.24546ZM4.15887 7.69532C3.92572 7.69532 3.69781 7.62618 3.50395 7.49665C3.3101 7.36712 3.15901 7.18302 3.06979 6.96762C2.98056 6.75221 2.95722 6.51519 3.0027 6.28653C3.04819 6.05786 3.16046 5.84781 3.32532 5.68295C3.49018 5.51809 3.70023 5.40582 3.92889 5.36034C4.15756 5.31485 4.39458 5.3382 4.60998 5.42742C4.82538 5.51664 5.00949 5.66773 5.13902 5.86159C5.26855 6.05544 5.33769 6.28335 5.33769 6.5165C5.33769 6.82914 5.21349 7.12898 4.99242 7.35005C4.77135 7.57112 4.47151 7.69532 4.15887 7.69532ZM8.87413 7.69532C8.64099 7.69532 8.41307 7.62618 8.21922 7.49665C8.02536 7.36712 7.87427 7.18302 7.78505 6.96762C7.69583 6.75221 7.67248 6.51519 7.71797 6.28653C7.76345 6.05786 7.87573 5.84781 8.04059 5.68295C8.20545 5.51809 8.41549 5.40582 8.64416 5.36034C8.87283 5.31485 9.10985 5.3382 9.32525 5.42742C9.54065 5.51664 9.72475 5.66773 9.85428 5.86159C9.98381 6.05544 10.0529 6.28335 10.0529 6.5165C10.0529 6.82914 9.92875 7.12898 9.70768 7.35005C9.48661 7.57112 9.18678 7.69532 8.87413 7.69532Z" fill="#696969"/>
</svg>
