<svg width="18" height="18" viewBox="0 0 18 18" fill="none" xmlns="http://www.w3.org/2000/svg">
<path d="M16.9998 11C15.6085 11.3901 14.3976 11.3659 12.9998 11C11.6019 10.6341 10.0215 10.0217 8.99976 9C7.97803 7.97827 7.36564 6.39785 6.99976 5C6.63388 3.60215 6.60962 2.39127 6.99976 1C5.62809 1.38178 3.99922 1.98594 2.99976 3C2.00029 4.01406 1.36161 5.62294 0.999756 7C0.637897 8.37706 0.627925 9.6256 0.999756 11C1.37159 12.3744 1.99297 13.9932 2.99976 15C4.00654 16.0068 5.62536 16.6282 6.99976 17C8.37416 17.3718 9.6227 17.3619 10.9998 17C12.3768 16.6381 13.9857 15.9995 14.9998 15C16.0138 14.0005 16.618 12.3717 16.9998 11Z" stroke="white" stroke-linecap="round" stroke-linejoin="round"/>
</svg>
