<svg width="13" height="13" viewBox="0 0 13 13" fill="none" xmlns="http://www.w3.org/2000/svg">
<path d="M6.49877 7.8C8.29085 7.8 9.74363 6.05391 9.74363 3.9C9.74363 1.74609 8.29085 0 6.49877 0C4.70668 0 3.25391 1.74609 3.25391 3.9C3.25391 6.05391 4.70668 7.8 6.49877 7.8Z" fill="#696969"/>
<path d="M12.8599 11.1145C12.2759 9.94455 11.1726 8.96955 9.74486 8.38455C9.35548 8.25455 8.9012 8.25455 8.57671 8.44955C7.92774 8.83955 7.27877 9.03455 6.5 9.03455C5.72123 9.03455 5.07226 8.83955 4.42329 8.44955C4.0988 8.31955 3.64452 8.25455 3.25514 8.44955C1.8274 9.03455 0.72415 10.0095 0.140075 11.1795C-0.314205 12.0245 0.399664 12.9995 1.37312 12.9995H11.6269C12.6003 12.9995 13.3142 12.0245 12.8599 11.1145Z" fill="#696969"/>
</svg>
