<svg width="22" height="25" viewBox="0 0 22 25" fill="none" xmlns="http://www.w3.org/2000/svg">
<path d="M20.3204 21.8326L12.5718 21.8765V23.4378C12.5718 24.3021 11.8745 25 11.0054 25C10.1377 25 9.42918 24.3011 9.42918 23.4387V21.8775L1.62661 21.877C0.227156 21.877 -0.518729 20.1937 0.414241 19.1244L3.80141 15.24H3.05651C1.80878 15.24 1.1341 13.7857 1.94333 12.8423L4.90968 9.38444H4.38182C3.33689 9.38444 2.76778 8.28633 3.4351 7.56354L10.0543 0.41364C10.5649 -0.137853 11.44 -0.137853 11.9507 0.413479L18.5747 7.56337C19.2435 8.28617 18.673 9.38428 17.628 9.38428H17.0992L20.0626 12.8426C20.8708 13.7865 20.1959 15.2399 18.9489 15.2399H18.2025L21.5897 19.1242C22.5251 20.2025 21.7591 21.8326 20.3204 21.8326Z" fill="white"/>
</svg>
