<svg width="49" height="48" viewBox="0 0 49 48" fill="none" xmlns="http://www.w3.org/2000/svg">
<g clip-path="url(#clip0_3707_6205)">
<path d="M24.5 30H18.5V24L36.5 6L42.5 12L24.5 30Z" stroke="#F1F1F1" stroke-width="3" stroke-linecap="round" stroke-linejoin="round"/>
<path d="M32 10.5L38 16.5" stroke="#F1F1F1" stroke-width="3" stroke-linecap="round" stroke-linejoin="round"/>
<path d="M41 24V39C41 39.3978 40.842 39.7794 40.5607 40.0607C40.2794 40.342 39.8978 40.5 39.5 40.5H9.5C9.10218 40.5 8.72064 40.342 8.43934 40.0607C8.15804 39.7794 8 39.3978 8 39V9C8 8.60218 8.15804 8.22064 8.43934 7.93934C8.72064 7.65804 9.10218 7.5 9.5 7.5H24.5" stroke="#F1F1F1" stroke-width="3" stroke-linecap="round" stroke-linejoin="round"/>
</g>
<defs>
<clipPath id="clip0_3707_6205">
<rect width="48" height="48" fill="white" transform="translate(0.5)"/>
</clipPath>
</defs>
</svg>
