<svg width="26" height="25" viewBox="0 0 26 25" fill="none" xmlns="http://www.w3.org/2000/svg">
<g clip-path="url(#clip0_6569_33360)">
<path d="M21.1765 7.61797C20.8674 7.61797 20.6085 7.50277 20.3998 7.27237C20.191 7.04197 20.0863 6.75717 20.0856 6.41797V5.21797H18.9947C18.6856 5.21797 18.4267 5.10277 18.2179 4.87237C18.0092 4.64197 17.9045 4.35717 17.9038 4.01797C17.903 3.67877 18.0078 3.39397 18.2179 3.16357C18.4281 2.93317 18.687 2.81797 18.9947 2.81797H20.0856V1.61797C20.0856 1.27797 20.1903 0.993173 20.3998 0.763573C20.6092 0.533973 20.8681 0.418773 21.1765 0.417973C21.4849 0.417173 21.7441 0.532373 21.9543 0.763573C22.1645 0.994773 22.2689 1.27957 22.2674 1.61797V2.81797H23.3583C23.6674 2.81797 23.9267 2.93317 24.1361 3.16357C24.3456 3.39397 24.4499 3.67877 24.4492 4.01797C24.4485 4.35717 24.3438 4.64237 24.135 4.87357C23.9263 5.10477 23.6674 5.21957 23.3583 5.21797H22.2674V6.41797C22.2674 6.75797 22.1627 7.04317 21.9532 7.27357C21.7438 7.50397 21.4849 7.61877 21.1765 7.61797ZM11.3583 20.218C12.7219 20.218 13.8812 19.6932 14.8361 18.6436C15.791 17.594 16.2681 16.3188 16.2674 14.818C16.2667 13.3172 15.7896 12.0424 14.8361 10.9936C13.8827 9.94477 12.7234 9.41957 11.3583 9.41797C9.99322 9.41637 8.83431 9.94157 7.88158 10.9936C6.92885 12.0456 6.4514 13.3204 6.44922 14.818C6.44704 16.3156 6.92449 17.5908 7.88158 18.6436C8.83867 19.6964 9.99758 20.2212 11.3583 20.218ZM11.3583 17.818C10.5947 17.818 9.94922 17.528 9.42194 16.948C8.89467 16.368 8.63104 15.658 8.63104 14.818C8.63104 13.978 8.89467 13.268 9.42194 12.688C9.94922 12.108 10.5947 11.818 11.3583 11.818C12.1219 11.818 12.7674 12.108 13.2947 12.688C13.8219 13.268 14.0856 13.978 14.0856 14.818C14.0856 15.658 13.8219 16.368 13.2947 16.948C12.7674 17.528 12.1219 17.818 11.3583 17.818ZM2.63104 24.418C2.03104 24.418 1.51758 24.1832 1.09067 23.7136C0.663764 23.244 0.449946 22.6788 0.449219 22.018V7.61797C0.449219 6.95797 0.663037 6.39317 1.09067 5.92357C1.51831 5.45397 2.03176 5.21877 2.63104 5.21797H6.0674L7.43104 3.59797C7.63104 3.35797 7.87213 3.16797 8.15431 3.02797C8.43649 2.88797 8.73176 2.81797 9.04013 2.81797H14.631C14.9401 2.81797 15.1994 2.93317 15.4089 3.16357C15.6183 3.39397 15.7227 3.67877 15.7219 4.01797V5.81797C15.7219 6.31797 15.8812 6.74317 16.1998 7.09357C16.5183 7.44397 16.9045 7.61877 17.3583 7.61797H17.9038V8.21797C17.9038 8.71797 18.063 9.14317 18.3816 9.49357C18.7001 9.84397 19.0863 10.0188 19.5401 10.018H21.1765C21.4856 10.018 21.7449 10.1332 21.9543 10.3636C22.1638 10.594 22.2681 10.8788 22.2674 11.218V22.018C22.2674 22.678 22.0539 23.2432 21.627 23.7136C21.2001 24.184 20.6863 24.4188 20.0856 24.418H2.63104Z" fill="#010101"/>
</g>
<defs>
<clipPath id="clip0_6569_33360">
<rect width="25" height="25" fill="white" transform="translate(0.03125)"/>
</clipPath>
</defs>
</svg>
