<svg width="40" height="40" viewBox="0 0 40 40" fill="none" xmlns="http://www.w3.org/2000/svg">
<path d="M20.0007 36.6654C29.2054 36.6654 36.6673 29.2034 36.6673 19.9987C36.6673 10.794 29.2054 3.33203 20.0007 3.33203C10.7959 3.33203 3.33398 10.794 3.33398 19.9987C3.33398 29.2034 10.7959 36.6654 20.0007 36.6654Z" stroke="#00C1AC" stroke-width="3.33333" stroke-linecap="round" stroke-linejoin="round"/>
<path d="M20 30C25.5228 30 30 25.5228 30 20C30 14.4772 25.5228 10 20 10C14.4772 10 10 14.4772 10 20C10 25.5228 14.4772 30 20 30Z" stroke="#00C1AC" stroke-width="3.33333" stroke-linecap="round" stroke-linejoin="round"/>
<path d="M19.9993 23.3346C21.8403 23.3346 23.3327 21.8423 23.3327 20.0013C23.3327 18.1604 21.8403 16.668 19.9993 16.668C18.1584 16.668 16.666 18.1604 16.666 20.0013C16.666 21.8423 18.1584 23.3346 19.9993 23.3346Z" stroke="#00C1AC" stroke-width="3.33333" stroke-linecap="round" stroke-linejoin="round"/>
</svg>
