<svg width="30" height="30" viewBox="0 0 30 30" fill="none" xmlns="http://www.w3.org/2000/svg">
<path d="M12.1875 1.875C6.50156 1.875 1.875 6.50156 1.875 12.1875C1.875 17.8734 6.50156 22.5 12.1875 22.5C17.8734 22.5 22.5 17.8734 22.5 12.1875C22.5 6.50156 17.8734 1.875 12.1875 1.875ZM12.1875 20.625C7.53562 20.625 3.75 16.8403 3.75 12.1875C3.75 7.53562 7.53562 3.75 12.1875 3.75C16.8403 3.75 20.625 7.53562 20.625 12.1875C20.625 16.8403 16.8403 20.625 12.1875 20.625Z" fill="white"/>
<path d="M27.8495 26.5249L22.2236 20.8999C21.857 20.5334 21.2645 20.5334 20.898 20.8999C20.5314 21.2665 20.5314 21.859 20.898 22.2255L26.5239 27.8505C26.7067 28.0334 26.9467 28.1252 27.1867 28.1252C27.4267 28.1252 27.6667 28.0334 27.8495 27.8505C28.2161 27.484 28.2161 26.8915 27.8495 26.5249Z" fill="white"/>
</svg>
