<svg width="32" height="32" viewBox="0 0 32 32" fill="none" xmlns="http://www.w3.org/2000/svg">
<path d="M16 20C18.2091 20 20 18.2091 20 16C20 13.7909 18.2091 12 16 12C13.7909 12 12 13.7909 12 16C12 18.2091 13.7909 20 16 20Z" stroke="white" stroke-miterlimit="10" stroke-linecap="round" stroke-linejoin="round"/>
<path d="M27.7589 10.366L26.7589 8.634C26.2069 7.677 24.9839 7.35 24.0269 7.902L23.5009 8.206C21.5009 9.36 19.0009 7.917 19.0009 5.608V5C19.0009 3.895 18.1059 3 17.0009 3H15.0009C13.8959 3 13.0009 3.895 13.0009 5V5.608C13.0009 7.917 10.5009 9.361 8.50087 8.206L7.97487 7.902C7.01787 7.35 5.79487 7.677 5.24287 8.634L4.24287 10.366C3.69087 11.323 4.01787 12.546 4.97487 13.098L5.50087 13.402C7.50087 14.557 7.50087 17.443 5.50087 18.598L4.97487 18.902C4.01787 19.454 3.69087 20.677 4.24287 21.634L5.24287 23.366C5.79487 24.323 7.01787 24.65 7.97487 24.098L8.50087 23.794C10.5009 22.639 13.0009 24.083 13.0009 26.392V27C13.0009 28.105 13.8959 29 15.0009 29H17.0009C18.1059 29 19.0009 28.105 19.0009 27V26.392C19.0009 24.083 21.5009 22.639 23.5009 23.794L24.0269 24.098C24.9839 24.65 26.2069 24.323 26.7589 23.366L27.7589 21.634C28.3109 20.677 27.9839 19.454 27.0269 18.902L26.5009 18.598C24.5009 17.443 24.5009 14.557 26.5009 13.402L27.0269 13.098C27.9839 12.546 28.3119 11.323 27.7589 10.366Z" stroke="white" stroke-miterlimit="10" stroke-linecap="round" stroke-linejoin="round"/>
</svg>
