<svg width="100" height="100" viewBox="0 0 100 100" fill="none" xmlns="http://www.w3.org/2000/svg">
<path d="M71.6876 22.4059C71.2814 22.26 70.8334 22.4684 70.6876 22.8746C70.5418 23.2809 70.7501 23.7288 71.1564 23.8746L75.198 25.333C75.2814 25.3642 75.3751 25.3746 75.4585 25.3746C75.7814 25.3746 76.0835 25.1767 76.198 24.8538C76.3439 24.4475 76.1355 23.9996 75.7293 23.8538L71.6876 22.3955V22.4059Z" fill="white"/>
<path d="M70.0312 17.8752C70.1562 17.8752 70.2917 17.8439 70.4167 17.771L74.2396 15.6147C74.6146 15.4064 74.75 14.9272 74.5417 14.5522C74.3333 14.1772 73.8542 14.0418 73.4792 14.2502L69.6562 16.4064C69.2812 16.6147 69.1458 17.0939 69.3542 17.4689C69.5 17.7293 69.7604 17.8647 70.0312 17.8647V17.8752Z" fill="white"/>
<path d="M71.1666 20.0095C71.2187 20.4053 71.5521 20.6866 71.9375 20.6866C71.9687 20.6866 72.0104 20.6866 72.0416 20.6866L76.3021 20.1241C76.7291 20.072 77.0312 19.6762 76.9687 19.2491C76.9166 18.822 76.5104 18.5199 76.0937 18.5824L71.8333 19.1449C71.4062 19.197 71.1041 19.5928 71.1666 20.0199V20.0095Z" fill="white"/>
<path d="M34.9583 22.4072L30.9166 23.8655C30.5104 24.0113 30.302 24.4593 30.4479 24.8655C30.5625 25.1884 30.8645 25.3863 31.1875 25.3863C31.2708 25.3863 31.3645 25.3759 31.4479 25.3447L35.4895 23.8863C35.8958 23.7405 36.1041 23.2926 35.9583 22.8863C35.8125 22.4801 35.3645 22.2718 34.9583 22.4176V22.4072Z" fill="white"/>
<path d="M32.4062 15.6143L36.2292 17.7706C36.3542 17.8435 36.4792 17.8747 36.6146 17.8747C36.8854 17.8747 37.1562 17.7289 37.2917 17.4789C37.5 17.1039 37.375 16.6247 36.9896 16.4164L33.1667 14.2602C32.7917 14.0518 32.3125 14.1768 32.1042 14.5622C31.8958 14.9372 32.0208 15.4164 32.4062 15.6247V15.6143Z" fill="white"/>
<path d="M30.3438 20.115L34.6042 20.6775C34.6042 20.6775 34.6772 20.6775 34.7084 20.6775C35.0938 20.6775 35.4272 20.3962 35.4792 20.0004C35.5313 19.5733 35.2397 19.1775 34.8126 19.1254L30.5522 18.5629C30.1251 18.5004 29.7292 18.8025 29.6772 19.2295C29.6251 19.6566 29.9167 20.0525 30.3438 20.1045V20.115Z" fill="white"/>
<path d="M69.6251 49.0631C70.9272 46.5111 71.6772 43.6256 71.6772 40.5631C71.6772 34.2402 68.5313 28.6569 63.7292 25.2402C65.8126 24.3756 67.1667 23.1882 67.1667 21.6986C67.1667 18.2715 59.948 16.4277 53.1563 16.4277C46.3647 16.4277 39.1459 18.2715 39.1459 21.6986C39.1459 23.0944 40.3542 24.2194 42.2397 25.0736C37.3126 28.4694 34.0834 34.1361 34.0834 40.5527C34.0834 43.5215 34.7917 46.3236 36.0209 48.8236C35.2084 49.0527 33.8334 49.459 32.1772 50.0736L29.5105 45.9486C29.198 45.4694 28.5522 45.3236 28.073 45.6361C27.5938 45.9486 27.448 46.5944 27.7605 47.0736L30.198 50.8444C24.5001 53.2194 17.198 57.5631 17.198 64.1881C17.198 67.0423 18.448 69.3861 20.9167 71.1673C24.5417 73.7819 29.9897 74.6152 34.3126 74.6152C36.8542 74.6152 39.0105 74.3236 40.1772 73.9382C44.6876 72.4277 46.6667 69.2506 46.2813 66.8965C46.0522 65.4798 44.8542 63.9694 42.1772 63.9694C41.823 63.9694 41.4584 63.9694 41.0938 63.9694C41.0626 63.8548 41.0313 63.7506 40.9688 63.6465L33.0626 51.4277C34.8022 50.7923 36.1876 50.3965 36.8022 50.2298C40.0938 55.6777 46.0626 59.3444 52.8855 59.3444C59.7084 59.3444 65.5105 55.7819 68.823 50.459C71.0001 51.0319 86.4272 55.4173 86.4272 64.1986C86.4272 66.5215 85.3959 68.4381 83.3542 69.9069C81.0522 71.5631 77.7501 72.4382 74.5522 72.8236C74.4584 72.8236 74.3542 72.8236 74.2605 72.8548C70.573 73.2507 67.0834 72.9902 65.5105 72.4694C61.8647 71.2506 60.1772 68.8236 60.448 67.1569C60.6147 66.1361 61.5522 65.5423 63.0105 65.5423C68.2188 65.5423 75.3438 65.5423 77.2397 61.1256C77.4063 60.7298 77.2292 60.2715 76.8334 60.1048C76.4376 59.9381 75.9792 60.1152 75.8126 60.5111C74.323 63.9798 67.7917 63.9798 63.0209 63.9798C60.3438 63.9798 59.1459 65.4902 58.9167 66.9069C58.5313 69.2611 60.5105 72.4381 65.0209 73.9486C66.1876 74.334 68.3438 74.6256 70.8855 74.6256C71.9063 74.6256 72.9897 74.5736 74.0938 74.4694L77.7501 81.1465H32.3438C31.9167 81.1465 31.5626 81.5006 31.5626 81.9277C31.5626 82.3548 31.9167 82.709 32.3438 82.709H79.0626C79.3334 82.709 79.5938 82.5631 79.7397 82.3236C79.8751 82.084 79.8855 81.7923 79.7501 81.5527L75.7501 74.2611C78.823 73.8027 81.9272 72.8652 84.2813 71.1777C86.7501 69.3965 88.0001 67.0527 88.0001 64.1986C88.0001 54.6048 73.0938 50.0006 69.6355 49.0527L69.6251 49.0631ZM38.6772 63.9486C34.6667 63.8027 30.5417 63.1881 29.4063 60.5319C29.2397 60.1361 28.7709 59.9486 28.3855 60.1256C27.9897 60.2923 27.8022 60.7506 27.9792 61.1465C29.8751 65.5631 37.0001 65.5631 42.2084 65.5631C43.6667 65.5631 44.6042 66.1465 44.7709 67.1777C45.0417 68.8444 43.3647 71.2715 39.7084 72.4902C36.7188 73.4902 26.8751 73.5527 21.8542 69.9381C19.8126 68.4694 18.7813 66.5527 18.7813 64.2298C18.7813 58.4173 25.7397 54.4381 31.0938 52.2298L38.6876 63.959L38.6772 63.9486ZM40.7292 21.709C40.7292 20.1569 45.4688 18.0007 53.1772 18.0007C60.8855 18.0007 65.6251 20.1569 65.6251 21.709C65.6251 22.5007 64.3647 23.459 62.1042 24.1986C59.3751 22.6569 56.2397 21.7715 52.8959 21.7715C49.5522 21.7715 46.5626 22.6048 43.8855 24.0736C41.8542 23.3548 40.7292 22.459 40.7292 21.709ZM59.8126 24.8027C57.9688 25.1777 55.7397 25.4173 53.1772 25.4173C50.4272 25.4173 48.0626 25.1361 46.1459 24.7194C48.2188 23.834 50.5001 23.3444 52.8959 23.3444C55.2917 23.3444 57.698 23.8756 59.8126 24.8027ZM52.8855 57.8027C43.3855 57.8027 35.6563 50.0736 35.6563 40.5736C35.6563 34.2819 39.0522 28.7923 44.0938 25.7819C46.6876 26.5736 49.9688 26.9902 53.1667 26.9902C56.3647 26.9902 59.3334 26.6152 61.8647 25.8965C66.8022 28.9277 70.1147 34.3652 70.1147 40.5736C70.1147 50.0736 62.3855 57.8027 52.8855 57.8027Z" fill="white"/>
<path d="M64.9582 43.9483C64.6874 43.615 64.1978 43.5629 63.8645 43.8233C63.677 43.9795 59.1562 47.5108 55.5312 43.8858C55.2291 43.5837 54.7291 43.5837 54.427 43.8858C54.1249 44.1879 54.1249 44.6879 54.427 44.99C55.9583 46.5212 57.6666 47.0629 59.2916 47.0629C61.5728 47.0629 63.6874 45.9796 64.8437 45.0421C65.177 44.7712 65.2395 44.2816 64.9687 43.9483H64.9582Z" fill="white"/>
<path d="M51.4167 43.9483C51.1459 43.615 50.6563 43.5629 50.323 43.8233C45.9376 47.3337 42.0209 43.917 41.9897 43.8858C41.6876 43.5837 41.1876 43.5837 40.8855 43.8858C40.5834 44.1879 40.5834 44.6879 40.8855 44.99C41.5001 45.6045 43.5522 46.9691 46.1667 46.9691C47.7397 46.9691 49.5105 46.4796 51.3022 45.0525C51.6355 44.7816 51.698 44.2921 51.4272 43.9587L51.4167 43.9483Z" fill="white"/>
<path d="M54.3333 52.7911C53.9583 53.3223 53.3958 53.9577 52.7708 53.9577C52.7603 53.9577 52.7395 53.9577 52.7291 53.9577C51.9687 53.9161 51.302 53.0202 51.2083 52.864C50.9999 52.489 50.5207 52.3536 50.1457 52.5619C49.7707 52.7702 49.6353 53.2494 49.8437 53.6244C49.8437 53.6452 50.8958 55.4369 52.6458 55.5202C52.6874 55.5202 52.7291 55.5202 52.7812 55.5202C53.8228 55.5202 54.7708 54.9056 55.6249 53.6869C55.8749 53.3327 55.7812 52.8431 55.427 52.6036C55.0728 52.3536 54.5832 52.4473 54.3437 52.8015L54.3333 52.7911Z" fill="white"/>
</svg>
