<svg width="54" height="54" viewBox="0 0 54 54" fill="none" xmlns="http://www.w3.org/2000/svg">
<g clip-path="url(#clip0_13502_128540)">
<mask id="path-1-inside-1_13502_128540" fill="white">
<path d="M0.815412 26.0962C1.02957 26.2568 1.27328 26.3736 1.53261 26.4401C1.79193 26.5065 2.06181 26.5212 2.32682 26.4834C2.59183 26.4455 2.84679 26.3558 3.07715 26.2195C3.3075 26.0831 3.50873 25.9027 3.66935 25.6886C4.90359 24.0432 6.50403 22.7078 8.34393 21.788C10.1838 20.8682 12.2126 20.3893 14.2697 20.3893C16.3268 20.3893 18.3556 20.8682 20.1955 21.788C22.0354 22.7078 23.6358 24.0432 24.8701 25.6886C25.1948 26.1206 25.6779 26.406 26.2131 26.482C26.7483 26.5579 27.2918 26.4183 27.724 26.0937C27.8781 25.9791 28.0146 25.8426 28.1292 25.6886C29.3634 24.0432 30.9638 22.7078 32.8037 21.788C34.6436 20.8682 36.6725 20.3893 38.7295 20.3893C40.7866 20.3893 42.8154 20.8682 44.6553 21.788C46.4952 22.7078 48.0956 24.0432 49.3299 25.6886C49.6546 26.121 50.1379 26.4068 50.6733 26.483C51.2088 26.5592 51.7526 26.4196 52.1851 26.0949C52.6176 25.7703 52.9034 25.2871 52.9796 24.7517C53.0559 24.2164 52.9162 23.6727 52.5915 23.2402C50.7871 20.8216 48.3809 18.9173 45.6121 17.7168C47.13 16.3312 48.1935 14.5191 48.6629 12.5184C49.1324 10.5177 48.9859 8.42188 48.2427 6.50591C47.4995 4.58994 46.1943 2.94339 44.4984 1.78234C42.8025 0.621293 40.7951 0 38.7397 0C36.6843 0 34.677 0.621293 32.9811 1.78234C31.2851 2.94339 29.9799 4.58994 29.2367 6.50591C28.4935 8.42188 28.347 10.5177 28.8165 12.5184C29.2859 14.5191 30.3494 16.3312 31.8673 17.7168C29.8681 18.5811 28.052 19.8184 26.5162 21.3626C24.9803 19.8184 23.1642 18.5811 21.165 17.7168C22.6829 16.3312 23.7464 14.5191 24.2159 12.5184C24.6853 10.5177 24.5388 8.42188 23.7956 6.50591C23.0524 4.58994 21.7472 2.94339 20.0513 1.78234C18.3554 0.621293 16.348 0 14.2926 0C12.2373 0 10.2299 0.621293 8.53398 1.78234C6.83808 2.94339 5.53287 4.58994 4.78966 6.50591C4.04645 8.42188 3.89996 10.5177 4.36942 12.5184C4.83887 14.5191 5.90234 16.3312 7.42025 17.7168C4.63931 18.9134 2.22123 20.8189 0.407706 23.2428C0.247084 23.4569 0.130217 23.7006 0.063778 23.9598C-0.00266093 24.2191 -0.0173706 24.4889 0.0204884 24.7539C0.0583474 25.0189 0.148034 25.2738 0.284427 25.5041C0.420821 25.7344 0.601249 25.9356 0.815412 26.0962ZM38.7321 4.08401C39.9416 4.08401 41.124 4.44262 42.1297 5.11449C43.1354 5.78636 43.9193 6.74131 44.3821 7.85859C44.845 8.97587 44.9661 10.2053 44.7301 11.3914C44.4942 12.5775 43.9117 13.667 43.0564 14.5221C42.2012 15.3772 41.1115 15.9596 39.9252 16.1955C38.7389 16.4314 37.5092 16.3104 36.3917 15.8476C35.2743 15.3848 34.3191 14.6011 33.6471 13.5955C32.9751 12.59 32.6165 11.4078 32.6165 10.1985C32.6165 8.57684 33.2608 7.0216 34.4077 5.8749C35.5546 4.72821 37.1101 4.08401 38.7321 4.08401ZM14.2697 4.08401C15.4793 4.08401 16.6616 4.44262 17.6673 5.11449C18.6731 5.78636 19.4569 6.74131 19.9198 7.85859C20.3827 8.97587 20.5038 10.2053 20.2678 11.3914C20.0318 12.5775 19.4494 13.667 18.5941 14.5221C17.7388 15.3772 16.6491 15.9596 15.4628 16.1955C14.2765 16.4314 13.0469 16.3104 11.9294 15.8476C10.8119 15.3848 9.85677 14.6011 9.18478 13.5955C8.51279 12.59 8.15412 11.4078 8.15412 10.1985C8.15412 8.57684 8.79844 7.0216 9.94533 5.8749C11.0922 4.72821 12.6478 4.08401 14.2697 4.08401ZM45.6121 44.213C47.13 42.8274 48.1935 41.0153 48.6629 39.0146C49.1324 37.0139 48.9859 34.918 48.2427 33.0021C47.4995 31.0861 46.1943 29.4396 44.4984 28.2785C42.8025 27.1175 40.7951 26.4962 38.7397 26.4962C36.6843 26.4962 34.677 27.1175 32.9811 28.2785C31.2851 29.4396 29.9799 31.0861 29.2367 33.0021C28.4935 34.918 28.347 37.0139 28.8165 39.0146C29.2859 41.0153 30.3494 42.8274 31.8673 44.213C29.8681 45.0773 28.052 46.3146 26.5162 47.8587C24.9803 46.3146 23.1642 45.0773 21.165 44.213C22.6829 42.8274 23.7464 41.0153 24.2159 39.0146C24.6853 37.0139 24.5388 34.918 23.7956 33.0021C23.0524 31.0861 21.7472 29.4396 20.0513 28.2785C18.3554 27.1175 16.348 26.4962 14.2926 26.4962C12.2373 26.4962 10.2299 27.1175 8.53398 28.2785C6.83808 29.4396 5.53287 31.0861 4.78966 33.0021C4.04645 34.918 3.89996 37.0139 4.36942 39.0146C4.83887 41.0153 5.90234 42.8274 7.42025 44.213C4.63931 45.4096 2.22123 47.3151 0.407706 49.7389C0.247084 49.9531 0.130217 50.1967 0.063778 50.456C-0.00266093 50.7153 -0.0173706 50.9851 0.0204884 51.2501C0.0583474 51.515 0.148034 51.77 0.284427 52.0003C0.420821 52.2306 0.601249 52.4318 0.815412 52.5924C1.02957 52.753 1.27328 52.8698 1.53261 52.9362C1.79193 53.0027 2.06181 53.0174 2.32682 52.9795C2.59183 52.9417 2.84679 52.852 3.07715 52.7156C3.3075 52.5793 3.50873 52.3989 3.66935 52.1847C4.90359 50.5394 6.50403 49.2039 8.34393 48.2841C10.1838 47.3644 12.2126 46.8855 14.2697 46.8855C16.3268 46.8855 18.3556 47.3644 20.1955 48.2841C22.0354 49.2039 23.6358 50.5394 24.8701 52.1847C25.1948 52.6168 25.6779 52.9022 26.2131 52.9781C26.7483 53.0541 27.2918 52.9144 27.724 52.5898C27.8781 52.4753 28.0146 52.3388 28.1292 52.1847C29.3634 50.5394 30.9638 49.2039 32.8037 48.2841C34.6436 47.3644 36.6725 46.8855 38.7295 46.8855C40.7866 46.8855 42.8154 47.3644 44.6553 48.2841C46.4952 49.2039 48.0956 50.5394 49.3299 52.1847C49.6546 52.6172 50.1379 52.9029 50.6733 52.9791C51.2088 53.0554 51.7526 52.9158 52.1851 52.5911C52.6176 52.2664 52.9034 51.7833 52.9796 51.2479C53.0559 50.7125 52.9162 50.1688 52.5915 49.7364C50.7871 47.3178 48.3809 45.4135 45.6121 44.213ZM14.2697 30.5802C15.4793 30.5802 16.6616 30.9388 17.6673 31.6106C18.6731 32.2825 19.4569 33.2375 19.9198 34.3547C20.3827 35.472 20.5038 36.7015 20.2678 37.8876C20.0318 39.0736 19.4494 40.1631 18.5941 41.0183C17.7388 41.8734 16.6491 42.4558 15.4628 42.6917C14.2765 42.9276 13.0469 42.8065 11.9294 42.3437C10.8119 41.8809 9.85677 41.0972 9.18478 40.0917C8.51279 39.0862 8.15412 37.904 8.15412 36.6947C8.15412 35.073 8.79844 33.5178 9.94533 32.3711C11.0922 31.2244 12.6478 30.5802 14.2697 30.5802ZM38.7321 30.5802C39.9416 30.5802 41.124 30.9388 42.1297 31.6106C43.1354 32.2825 43.9193 33.2375 44.3821 34.3547C44.845 35.472 44.9661 36.7015 44.7301 37.8876C44.4942 39.0736 43.9117 40.1631 43.0564 41.0183C42.2012 41.8734 41.1115 42.4558 39.9252 42.6917C38.7389 42.9276 37.5092 42.8065 36.3917 42.3437C35.2743 41.8809 34.3191 41.0972 33.6471 40.0917C32.9751 39.0862 32.6165 37.904 32.6165 36.6947C32.6165 35.073 33.2608 33.5178 34.4077 32.3711C35.5546 31.2244 37.1101 30.5802 38.7321 30.5802Z"/>
</mask>
<path d="M0.815412 26.0962C1.02957 26.2568 1.27328 26.3736 1.53261 26.4401C1.79193 26.5065 2.06181 26.5212 2.32682 26.4834C2.59183 26.4455 2.84679 26.3558 3.07715 26.2195C3.3075 26.0831 3.50873 25.9027 3.66935 25.6886C4.90359 24.0432 6.50403 22.7078 8.34393 21.788C10.1838 20.8682 12.2126 20.3893 14.2697 20.3893C16.3268 20.3893 18.3556 20.8682 20.1955 21.788C22.0354 22.7078 23.6358 24.0432 24.8701 25.6886C25.1948 26.1206 25.6779 26.406 26.2131 26.482C26.7483 26.5579 27.2918 26.4183 27.724 26.0937C27.8781 25.9791 28.0146 25.8426 28.1292 25.6886C29.3634 24.0432 30.9638 22.7078 32.8037 21.788C34.6436 20.8682 36.6725 20.3893 38.7295 20.3893C40.7866 20.3893 42.8154 20.8682 44.6553 21.788C46.4952 22.7078 48.0956 24.0432 49.3299 25.6886C49.6546 26.121 50.1379 26.4068 50.6733 26.483C51.2088 26.5592 51.7526 26.4196 52.1851 26.0949C52.6176 25.7703 52.9034 25.2871 52.9796 24.7517C53.0559 24.2164 52.9162 23.6727 52.5915 23.2402C50.7871 20.8216 48.3809 18.9173 45.6121 17.7168C47.13 16.3312 48.1935 14.5191 48.6629 12.5184C49.1324 10.5177 48.9859 8.42188 48.2427 6.50591C47.4995 4.58994 46.1943 2.94339 44.4984 1.78234C42.8025 0.621293 40.7951 0 38.7397 0C36.6843 0 34.677 0.621293 32.9811 1.78234C31.2851 2.94339 29.9799 4.58994 29.2367 6.50591C28.4935 8.42188 28.347 10.5177 28.8165 12.5184C29.2859 14.5191 30.3494 16.3312 31.8673 17.7168C29.8681 18.5811 28.052 19.8184 26.5162 21.3626C24.9803 19.8184 23.1642 18.5811 21.165 17.7168C22.6829 16.3312 23.7464 14.5191 24.2159 12.5184C24.6853 10.5177 24.5388 8.42188 23.7956 6.50591C23.0524 4.58994 21.7472 2.94339 20.0513 1.78234C18.3554 0.621293 16.348 0 14.2926 0C12.2373 0 10.2299 0.621293 8.53398 1.78234C6.83808 2.94339 5.53287 4.58994 4.78966 6.50591C4.04645 8.42188 3.89996 10.5177 4.36942 12.5184C4.83887 14.5191 5.90234 16.3312 7.42025 17.7168C4.63931 18.9134 2.22123 20.8189 0.407706 23.2428C0.247084 23.4569 0.130217 23.7006 0.063778 23.9598C-0.00266093 24.2191 -0.0173706 24.4889 0.0204884 24.7539C0.0583474 25.0189 0.148034 25.2738 0.284427 25.5041C0.420821 25.7344 0.601249 25.9356 0.815412 26.0962ZM38.7321 4.08401C39.9416 4.08401 41.124 4.44262 42.1297 5.11449C43.1354 5.78636 43.9193 6.74131 44.3821 7.85859C44.845 8.97587 44.9661 10.2053 44.7301 11.3914C44.4942 12.5775 43.9117 13.667 43.0564 14.5221C42.2012 15.3772 41.1115 15.9596 39.9252 16.1955C38.7389 16.4314 37.5092 16.3104 36.3917 15.8476C35.2743 15.3848 34.3191 14.6011 33.6471 13.5955C32.9751 12.59 32.6165 11.4078 32.6165 10.1985C32.6165 8.57684 33.2608 7.0216 34.4077 5.8749C35.5546 4.72821 37.1101 4.08401 38.7321 4.08401ZM14.2697 4.08401C15.4793 4.08401 16.6616 4.44262 17.6673 5.11449C18.6731 5.78636 19.4569 6.74131 19.9198 7.85859C20.3827 8.97587 20.5038 10.2053 20.2678 11.3914C20.0318 12.5775 19.4494 13.667 18.5941 14.5221C17.7388 15.3772 16.6491 15.9596 15.4628 16.1955C14.2765 16.4314 13.0469 16.3104 11.9294 15.8476C10.8119 15.3848 9.85677 14.6011 9.18478 13.5955C8.51279 12.59 8.15412 11.4078 8.15412 10.1985C8.15412 8.57684 8.79844 7.0216 9.94533 5.8749C11.0922 4.72821 12.6478 4.08401 14.2697 4.08401ZM45.6121 44.213C47.13 42.8274 48.1935 41.0153 48.6629 39.0146C49.1324 37.0139 48.9859 34.918 48.2427 33.0021C47.4995 31.0861 46.1943 29.4396 44.4984 28.2785C42.8025 27.1175 40.7951 26.4962 38.7397 26.4962C36.6843 26.4962 34.677 27.1175 32.9811 28.2785C31.2851 29.4396 29.9799 31.0861 29.2367 33.0021C28.4935 34.918 28.347 37.0139 28.8165 39.0146C29.2859 41.0153 30.3494 42.8274 31.8673 44.213C29.8681 45.0773 28.052 46.3146 26.5162 47.8587C24.9803 46.3146 23.1642 45.0773 21.165 44.213C22.6829 42.8274 23.7464 41.0153 24.2159 39.0146C24.6853 37.0139 24.5388 34.918 23.7956 33.0021C23.0524 31.0861 21.7472 29.4396 20.0513 28.2785C18.3554 27.1175 16.348 26.4962 14.2926 26.4962C12.2373 26.4962 10.2299 27.1175 8.53398 28.2785C6.83808 29.4396 5.53287 31.0861 4.78966 33.0021C4.04645 34.918 3.89996 37.0139 4.36942 39.0146C4.83887 41.0153 5.90234 42.8274 7.42025 44.213C4.63931 45.4096 2.22123 47.3151 0.407706 49.7389C0.247084 49.9531 0.130217 50.1967 0.063778 50.456C-0.00266093 50.7153 -0.0173706 50.9851 0.0204884 51.2501C0.0583474 51.515 0.148034 51.77 0.284427 52.0003C0.420821 52.2306 0.601249 52.4318 0.815412 52.5924C1.02957 52.753 1.27328 52.8698 1.53261 52.9362C1.79193 53.0027 2.06181 53.0174 2.32682 52.9795C2.59183 52.9417 2.84679 52.852 3.07715 52.7156C3.3075 52.5793 3.50873 52.3989 3.66935 52.1847C4.90359 50.5394 6.50403 49.2039 8.34393 48.2841C10.1838 47.3644 12.2126 46.8855 14.2697 46.8855C16.3268 46.8855 18.3556 47.3644 20.1955 48.2841C22.0354 49.2039 23.6358 50.5394 24.8701 52.1847C25.1948 52.6168 25.6779 52.9022 26.2131 52.9781C26.7483 53.0541 27.2918 52.9144 27.724 52.5898C27.8781 52.4753 28.0146 52.3388 28.1292 52.1847C29.3634 50.5394 30.9638 49.2039 32.8037 48.2841C34.6436 47.3644 36.6725 46.8855 38.7295 46.8855C40.7866 46.8855 42.8154 47.3644 44.6553 48.2841C46.4952 49.2039 48.0956 50.5394 49.3299 52.1847C49.6546 52.6172 50.1379 52.9029 50.6733 52.9791C51.2088 53.0554 51.7526 52.9158 52.1851 52.5911C52.6176 52.2664 52.9034 51.7833 52.9796 51.2479C53.0559 50.7125 52.9162 50.1688 52.5915 49.7364C50.7871 47.3178 48.3809 45.4135 45.6121 44.213ZM14.2697 30.5802C15.4793 30.5802 16.6616 30.9388 17.6673 31.6106C18.6731 32.2825 19.4569 33.2375 19.9198 34.3547C20.3827 35.472 20.5038 36.7015 20.2678 37.8876C20.0318 39.0736 19.4494 40.1631 18.5941 41.0183C17.7388 41.8734 16.6491 42.4558 15.4628 42.6917C14.2765 42.9276 13.0469 42.8065 11.9294 42.3437C10.8119 41.8809 9.85677 41.0972 9.18478 40.0917C8.51279 39.0862 8.15412 37.904 8.15412 36.6947C8.15412 35.073 8.79844 33.5178 9.94533 32.3711C11.0922 31.2244 12.6478 30.5802 14.2697 30.5802ZM38.7321 30.5802C39.9416 30.5802 41.124 30.9388 42.1297 31.6106C43.1354 32.2825 43.9193 33.2375 44.3821 34.3547C44.845 35.472 44.9661 36.7015 44.7301 37.8876C44.4942 39.0736 43.9117 40.1631 43.0564 41.0183C42.2012 41.8734 41.1115 42.4558 39.9252 42.6917C38.7389 42.9276 37.5092 42.8065 36.3917 42.3437C35.2743 41.8809 34.3191 41.0972 33.6471 40.0917C32.9751 39.0862 32.6165 37.904 32.6165 36.6947C32.6165 35.073 33.2608 33.5178 34.4077 32.3711C35.5546 31.2244 37.1101 30.5802 38.7321 30.5802Z" fill="#00C1AC" stroke="#01425C" stroke-width="2" mask="url(#path-1-inside-1_13502_128540)"/>
</g>
<defs>
<clipPath id="clip0_13502_128540">
<rect width="54" height="54" fill="white"/>
</clipPath>
</defs>
</svg>
