<svg width="27" height="26" viewBox="0 0 27 26" fill="none" xmlns="http://www.w3.org/2000/svg">
<path d="M11.9951 2.05566C12.4422 0.669575 14.4026 0.669561 14.8496 2.05566L16.5771 7.41211C16.9108 8.44663 17.8749 9.14678 18.9619 9.14453L24.5908 9.13281C26.0469 9.13002 26.6525 10.9942 25.4727 11.8477L20.9121 15.1465C20.0315 15.7835 19.663 16.9163 20.001 17.9492L21.752 23.2988C22.2047 24.6828 20.6187 25.8351 19.4424 24.9766L14.8965 21.6582C14.0184 21.0173 12.8263 21.0173 11.9482 21.6582L7.40234 24.9766C6.22603 25.8351 4.64002 24.6828 5.09277 23.2988L6.84375 17.9492C7.18169 16.9163 6.81318 15.7835 5.93262 15.1465L1.37207 11.8477C0.192117 10.9942 0.797799 9.12998 2.25391 9.13281L7.88281 9.14453C8.96976 9.14676 9.93394 8.44662 10.2676 7.41211L11.9951 2.05566Z" stroke="black"/>
</svg>
