<svg width="20" height="20" viewBox="0 0 20 20" fill="none" xmlns="http://www.w3.org/2000/svg">
<path d="M0.00160042 6.98083C-0.0217179 7.39752 0.211465 7.78582 0.59064 7.9602L8.19848 11.4498L11.6881 19.0567C11.8544 19.4176 12.2153 19.6477 12.6097 19.6477L12.6675 19.6457C12.871 19.6343 13.0663 19.5618 13.228 19.4378C13.3896 19.3137 13.5102 19.1438 13.5739 18.9502L19.2463 1.68251C19.3649 1.31956 19.2696 0.919095 18.9999 0.6484C18.7302 0.377705 18.3308 0.285446 17.9658 0.402037L0.697093 6.07548C0.503431 6.13872 0.333399 6.259 0.20929 6.42056C0.0851806 6.58212 0.0127871 6.77741 0.00160042 6.98083Z" fill="#696969"/>
</svg>
