<svg width="140" height="35" viewBox="0 0 140 35" fill="none" xmlns="http://www.w3.org/2000/svg">
<path d="M48.9712 8.86164C47.4406 8.07367 45.6617 7.67969 43.6333 7.67969H35.4663V26.487H43.6333C45.6617 26.487 47.4406 26.0934 48.9712 25.3045C50.5013 24.5166 51.6933 23.4197 52.5477 22.0131C53.4015 20.6073 53.8287 18.9634 53.8287 17.0831C53.8287 15.2028 53.4015 13.5368 52.5477 12.1396C51.6938 10.7424 50.5013 9.65006 48.9712 8.86164ZM49.4914 20.4687C48.9309 21.4358 48.1343 22.1882 47.1029 22.7254C46.0705 23.2626 44.8611 23.5314 43.4731 23.5314H38.9359V10.6353H43.4731C44.8611 10.6353 46.071 10.9041 47.1029 11.4412C48.1347 11.9784 48.9309 12.7267 49.4914 13.6845C50.0518 14.6431 50.3323 15.776 50.3323 17.0831C50.3323 18.3902 50.0522 19.501 49.4914 20.4687Z" fill="white"/>
<path d="M66.5455 12.9167C65.3978 12.2899 64.0854 11.9766 62.6089 11.9766C61.1324 11.9766 59.8505 12.2899 58.7122 12.9167C57.5734 13.5439 56.6744 14.408 56.0164 15.5094C55.358 16.6107 55.0288 17.8782 55.0288 19.311C55.0288 20.7437 55.358 21.9887 56.0164 23.0995C56.6744 24.2104 57.5734 25.0834 58.7122 25.7192C59.8505 26.3554 61.1499 26.6729 62.6089 26.6729C64.068 26.6729 65.3982 26.355 66.5455 25.7192C67.6932 25.0834 68.5914 24.2104 69.2413 23.0995C69.8907 21.9892 70.2155 20.7262 70.2155 19.311C70.2155 17.8958 69.8907 16.5887 69.2413 15.4959C68.5914 14.4035 67.6932 13.5435 66.5455 12.9167ZM66.3053 21.7024C65.9403 22.3832 65.438 22.9028 64.7975 23.2607C64.157 23.6192 63.427 23.7979 62.6089 23.7979C61.7909 23.7979 61.0917 23.6192 60.4602 23.2607C59.8282 22.9028 59.3259 22.3832 58.9524 21.7024C58.5789 21.022 58.3919 20.2246 58.3919 19.311C58.3919 18.3974 58.5789 17.5779 58.9524 16.9061C59.3259 16.2343 59.8286 15.7196 60.4602 15.3612C61.0917 15.0033 61.8168 14.8241 62.6353 14.8241C63.4539 14.8241 64.1565 15.0033 64.7971 15.3612C65.4376 15.7196 65.9403 16.2343 66.3048 16.9061C66.6694 17.5779 66.8519 18.3798 66.8519 19.311C66.8519 20.2421 66.6694 21.0216 66.3048 21.7024H66.3053Z" fill="white"/>
<path d="M76.8076 12.3266C77.4123 11.7354 78.1329 11.2789 78.9693 10.9565C79.8053 10.6341 80.7129 10.4729 81.6915 10.4729C82.6702 10.4729 83.6354 10.6476 84.4808 10.997C85.3257 11.3464 86.1129 11.8881 86.8429 12.6225L89.0315 10.4729C88.1593 9.47014 87.0871 8.70873 85.8155 8.18912C84.543 7.66996 83.1152 7.41016 81.5318 7.41016C80.0728 7.41016 78.7296 7.6479 77.5018 8.12203C76.274 8.59706 75.2019 9.26841 74.2858 10.137C73.3693 11.006 72.6617 12.0313 72.1639 13.2132C71.6656 14.3956 71.4165 15.6852 71.4165 17.0824C71.4165 18.4796 71.6656 19.7691 72.1639 20.9515C72.6617 22.1335 73.3649 23.1592 74.2724 24.0278C75.18 24.8968 76.2427 25.5686 77.462 26.0427C78.6804 26.5173 80.0196 26.7546 81.4791 26.7546C82.7954 26.7546 84.0988 26.5529 85.3892 26.1499C86.6792 25.7469 87.8135 25.1516 88.7922 24.3632V19.4463H88.8176V16.0922H82.5458V19.4463H85.5095V22.7125C85.1307 22.9327 84.7442 23.1128 84.3484 23.2484C83.4851 23.5437 82.591 23.6914 81.666 23.6914C80.6695 23.6914 79.7619 23.5302 78.9438 23.2078C78.1253 22.8854 77.4132 22.4244 76.8085 21.8242C76.2033 21.2244 75.7364 20.5211 75.4072 19.7151C75.078 18.9091 74.9134 18.0315 74.9134 17.0819C74.9134 16.1323 75.0775 15.2282 75.4072 14.4222C75.7364 13.6162 76.2033 12.9174 76.8085 12.3266H76.8076Z" fill="white"/>
<path d="M102.39 12.9167C101.242 12.2899 99.9297 11.9766 98.4532 11.9766C96.9767 11.9766 95.6948 12.2899 94.5564 12.9167C93.4176 13.5439 92.5186 14.408 91.8606 15.5094C91.2022 16.6107 90.873 17.8782 90.873 19.311C90.873 20.7437 91.2022 21.9887 91.8606 23.0995C92.5186 24.2104 93.4176 25.0834 94.5564 25.7192C95.6948 26.3554 96.9941 26.6729 98.4532 26.6729C99.9122 26.6729 101.242 26.355 102.39 25.7192C103.537 25.0834 104.436 24.2104 105.086 23.0995C105.735 21.9892 106.06 20.7262 106.06 19.311C106.06 17.8958 105.735 16.5887 105.086 15.4959C104.436 14.4035 103.537 13.5435 102.39 12.9167ZM102.15 21.7024C101.785 22.3832 101.282 22.9028 100.642 23.2607C100.001 23.6192 99.2713 23.7979 98.4532 23.7979C97.6351 23.7979 96.936 23.6192 96.3044 23.2607C95.6724 22.9028 95.1701 22.3832 94.7966 21.7024C94.4231 21.022 94.2362 20.2246 94.2362 19.311C94.2362 18.3974 94.4231 17.5779 94.7966 16.9061C95.1701 16.2343 95.6729 15.7196 96.3044 15.3612C96.936 15.0033 97.661 14.8241 98.4796 14.8241C99.2981 14.8241 100.001 15.0033 100.641 15.3612C101.282 15.7196 101.785 16.2343 102.149 16.9061C102.514 17.5779 102.696 18.3798 102.696 19.311C102.696 20.2421 102.514 21.0216 102.149 21.7024H102.15Z" fill="white"/>
<path d="M118.617 12.9167C117.469 12.2899 116.157 11.9766 114.68 11.9766C113.204 11.9766 111.922 12.2899 110.783 12.9167C109.645 13.5439 108.746 14.408 108.088 15.5094C107.429 16.6107 107.1 17.8782 107.1 19.311C107.1 20.7437 107.429 21.9887 108.088 23.0995C108.746 24.2104 109.645 25.0834 110.783 25.7192C111.922 26.3554 113.221 26.6729 114.68 26.6729C116.139 26.6729 117.469 26.355 118.617 25.7192C119.765 25.0834 120.663 24.2104 121.313 23.0995C121.962 21.9892 122.287 20.7262 122.287 19.311C122.287 17.8958 121.962 16.5887 121.313 15.4959C120.663 14.4035 119.765 13.5435 118.617 12.9167ZM118.377 21.7024C118.012 22.3832 117.509 22.9028 116.869 23.2607C116.228 23.6192 115.498 23.7979 114.68 23.7979C113.862 23.7979 113.163 23.6192 112.531 23.2607C111.899 22.9028 111.397 22.3832 111.024 21.7024C110.65 21.022 110.463 20.2246 110.463 19.311C110.463 18.3974 110.65 17.5779 111.024 16.9061C111.397 16.2343 111.9 15.7196 112.531 15.3612C113.163 15.0033 113.888 14.8241 114.707 14.8241C115.525 14.8241 116.228 15.0033 116.868 15.3612C117.509 15.7196 118.012 16.2343 118.376 16.9061C118.741 17.5779 118.923 18.3798 118.923 19.311C118.923 20.2421 118.741 21.0216 118.376 21.7024H118.377Z" fill="white"/>
<path d="M135.124 6.55078V13.9023C134.721 13.4412 134.259 13.0639 133.736 12.7708C132.793 12.2426 131.725 11.9783 130.533 11.9783C129.162 11.9783 127.931 12.2831 126.836 12.8919C125.742 13.5011 124.884 14.3521 124.261 15.4445C123.638 16.5373 123.327 17.8269 123.327 19.3136C123.327 20.8004 123.638 22.09 124.261 23.1828C124.884 24.2756 125.742 25.1307 126.836 25.7489C127.931 26.3667 129.163 26.676 130.533 26.676C131.761 26.676 132.846 26.4072 133.789 25.87C134.351 25.5494 134.84 25.1316 135.257 24.6169V26.4882H138.433V6.55078H135.124ZM134.604 21.7041C134.221 22.3849 133.714 22.9045 133.082 23.2625C132.451 23.6209 131.735 23.7997 130.934 23.7997C130.133 23.7997 129.416 23.6209 128.785 23.2625C128.153 22.9045 127.647 22.3849 127.264 21.7041C126.881 21.0238 126.69 20.2263 126.69 19.3127C126.69 18.3991 126.881 17.5797 127.264 16.9079C127.647 16.2361 128.154 15.7214 128.785 15.363C129.417 15.005 130.133 14.8258 130.934 14.8258C131.734 14.8258 132.45 15.005 133.082 15.363C133.714 15.7214 134.221 16.2361 134.604 16.9079C134.986 17.5797 135.177 18.3816 135.177 19.3127C135.177 20.2439 134.986 21.0233 134.604 21.7041Z" fill="white"/>
<path d="M18.0891 24.8682C17.8507 25.0866 17.4866 25.0866 17.2482 24.8682L16.5697 24.2464C12.6666 20.6834 10.0898 18.3263 10.0898 15.45C10.0898 13.0924 11.9237 11.2539 14.2581 11.2539C15.5767 11.2539 16.8425 11.8717 17.6686 12.8407C18.4948 11.8717 19.7606 11.2539 21.0792 11.2539C23.4135 11.2539 25.2474 13.0924 25.2474 15.45C25.2474 18.3263 22.6706 20.6834 18.7676 24.2464L18.0891 24.8682Z" fill="#00C1AC"/>
<path d="M32.2736 14.5651C32.2637 14.4836 32.2002 14.4156 32.1157 14.4052C32.0159 14.3926 31.9251 14.4638 31.9126 14.5642C31.6348 16.8065 31.0659 18.862 30.0582 20.8914C29.0357 22.95 27.5028 24.8551 25.7016 26.2734C23.9849 27.6251 21.961 28.7022 19.8154 29.0862C16.8051 29.6252 13.5981 29.0862 11.0038 27.3302C6.17631 24.0626 4.11567 17.1992 7.38084 11.5708C10.2855 6.56381 16.0492 4.52184 21.4882 6.39676L20.6545 8.42567C20.4872 8.83316 20.858 9.25686 21.2807 9.14069L28.1107 7.26442C28.4493 7.17122 28.6049 6.77768 28.422 6.47555L24.8106 0.516249C24.5861 0.145228 24.0377 0.188453 23.8731 0.589643L23.0327 2.63521C18.5428 0.955261 13.043 1.2736 8.27497 4.63666C2.20532 8.91736 0.372793 17.223 3.1312 23.7731C4.8756 27.9155 8.70123 31.3034 13.1951 32.4633C16.6839 33.3638 20.3391 33.2981 23.7819 31.6411C30.7734 28.2758 32.8309 21.1165 32.2736 14.5651Z" fill="#00C1AC"/>
<path d="M29.0957 13.1941C30.0961 13.1941 30.9072 12.3776 30.9072 11.3705C30.9072 10.3633 30.0961 9.54688 29.0957 9.54688C28.0952 9.54688 27.2842 10.3633 27.2842 11.3705C27.2842 12.3776 28.0952 13.1941 29.0957 13.1941Z" fill="#00C1AC"/>
</svg>
